<?xml version="1.0" encoding="utf-8"?>
<!-- Generator: Adobe Illustrator 19.2.1, SVG Export Plug-In . SVG Version: 6.00 Build 0)  -->
<svg version="1.1" id="layer" xmlns="http://www.w3.org/2000/svg" xmlns:xlink="http://www.w3.org/1999/xlink" x="0px" y="0px"
	 viewBox="0 0 652 652" style="enable-background:new 0 0 652 652;" xml:space="preserve">
<style type="text/css">
	.st0{fill:#003C99;}
</style>
<polygon class="st0" points="102.6,271.5 20.4,257.4 37.6,285 102.6,299.2 167.6,285 184.9,257.4 "/>
<polygon class="st0" points="102.6,362.2 85,357.4 102.6,385.7 120.3,357.4 "/>
<polygon class="st0" points="52.7,310.2 102.6,320.7 152.6,310.2 136.8,335.4 102.6,344.2 68.5,335.4 "/>
<polygon class="st0" points="590.5,341.4 590.5,381 620.4,381 620.4,372.2 600.4,372.2 600.4,364.5 612.9,364.5 612.9,355.9 
	600.4,355.9 600.4,350.1 619,350.1 619,341.4 "/>
<polygon class="st0" points="244.7,381 244.7,360.9 234.8,382.1 224.8,360.9 224.8,381 215.4,381 215.4,341.5 224.6,341.5 
	234.9,363.6 244.9,341.5 254.2,341.5 254.2,381 "/>
<g>
	<path class="st0" d="M310.3,350.3h-3.2v21.9h2.9c7.3,0,10.3-3.3,10.3-11C320.3,353.6,317.6,350.3,310.3,350.3 M309.6,381h-12.5
		v-39.5h13.4c12,0,20.1,4.9,20.1,19.6C330.6,375.6,322.3,381,309.6,381"/>
	<rect x="336.1" y="341.4" class="st0" width="10.1" height="39.5"/>
	<path class="st0" d="M376.1,355.2l9.1-3.7c-2.7-6.7-6.7-10.7-15.6-10.7c-10.6,0-17.9,7.9-17.9,20.4c0,12,6.5,20.4,17.7,20.4
		c8.6,0,13.2-4.5,15.9-9.8l-8.4-4.6c-2.2,3.7-3.8,5.4-7.3,5.4c-5.1,0-7.6-5-7.6-11.4c0-6.6,2.4-11.4,7.5-11.4
		C373,349.8,374.7,351.9,376.1,355.2"/>
	<path class="st0" d="M400.9,365.1h7.8l-3.9-12.7L400.9,365.1z M413.7,381l-2.3-7.6h-13L396,381h-10.6l14.6-39.5h9.9l14.6,39.5
		H413.7z"/>
	<polygon class="st0" points="428.4,381 456.7,381 456.7,372 438.4,372 438.4,341.5 428.4,341.5 	"/>
	<path class="st0" d="M499.6,355.2l9.1-3.7c-2.7-6.7-6.7-10.7-15.6-10.7c-10.6,0-17.9,7.9-17.9,20.4c0,12,6.5,20.4,17.7,20.4
		c8.6,0,13.2-4.5,15.9-9.8l-8.4-4.6c-2.2,3.7-3.8,5.4-7.3,5.4c-5.1,0-7.6-5-7.6-11.4c0-6.6,2.4-11.4,7.5-11.4
		C496.5,349.8,498.1,351.9,499.6,355.2"/>
	<path class="st0" d="M524.4,365.1h7.9l-3.9-12.7L524.4,365.1z M537.2,381l-2.3-7.6h-13.1l-2.3,7.6h-10.6l14.6-39.5h9.9L548,381
		H537.2z"/>
	<path class="st0" d="M569.5,350h-7.8v9.2h7.7c3.6,0,5.2-1.6,5.2-4.7C574.6,351.6,573,350,569.5,350 M573.9,381l-6.7-13.6h-5.6V381
		h-9.8v-39.5h18c8.6,0,14.8,3.7,14.8,12.7c0,5.9-2.7,9.6-7.3,11.6l7.8,15.2H573.9z"/>
	<polygon class="st0" points="261.9,381 291.8,381 291.8,372.2 271.8,372.2 271.8,364.5 284.2,364.5 284.2,355.9 271.8,355.9 
		271.8,350.1 290.4,350.1 290.4,341.4 261.9,341.4 	"/>
	<path class="st0" d="M502.9,322.3c9.9,0,16.1-4.2,16.1-12.7c0-7.8-5.3-10.6-14-12.6c-5.5-1.3-7-2-7-3.8c0-1.5,1-2.8,4.6-2.8
		c3.9,0,7.2,1.4,10.4,3.7l5.4-7.4c-4-3.3-8.8-5.1-15.3-5.1c-8.9,0-15.1,4.8-15.1,12.2c0,7.9,4.7,10.4,13.6,12.4
		c6,1.4,7.4,2.4,7.4,4.3c0,2.2-1.6,3.1-5.7,3.1c-3.7,0-8.4-1.8-11.2-4l-5.4,7.3C490.4,320,496.5,322.3,502.9,322.3"/>
	<polygon class="st0" points="225.3,290.9 225.3,297 239.3,297 239.3,305.8 225.3,305.8 225.3,321.7 215.4,321.7 215.4,282.1 
		244.9,282.1 244.9,290.9 	"/>
	<path class="st0" d="M266.4,290.6h-7.9v9.2h7.8c3.6,0,5.2-1.6,5.2-4.7C271.5,292.3,270,290.6,266.4,290.6 M270.9,321.7l-6.7-13.6
		h-5.6v13.6h-9.8v-39.6h18c8.7,0,14.8,3.7,14.8,12.8c0,5.9-2.7,9.6-7.3,11.6l7.8,15.2H270.9z"/>
	<polygon class="st0" points="287.2,321.7 317.1,321.7 317.1,313 297.1,313 297.1,305.2 309.6,305.2 309.6,296.6 297.1,296.6 
		297.1,290.8 315.8,290.8 315.8,282.1 287.2,282.1 	"/>
	<path class="st0" d="M335.4,322.3c9.9,0,16.1-4.2,16.1-12.7c0-7.8-5.3-10.6-14-12.6c-5.5-1.3-7-2-7-3.8c0-1.5,1-2.8,4.6-2.8
		c3.9,0,7.2,1.4,10.4,3.7l5.4-7.4c-4-3.3-8.8-5.1-15.3-5.1c-8.9,0-15.1,4.8-15.1,12.2c0,7.9,4.7,10.4,13.6,12.4
		c6,1.4,7.4,2.4,7.4,4.3c0,2.2-1.6,3.1-5.7,3.1c-3.7,0-8.4-1.8-11.2-4l-5.4,7.3C322.9,320,328.9,322.3,335.4,322.3"/>
	<polygon class="st0" points="356.8,321.7 386.7,321.7 386.7,313 366.7,313 366.7,305.2 379.2,305.2 379.2,296.6 366.7,296.6 
		366.7,290.8 385.4,290.8 385.4,282.1 356.8,282.1 	"/>
	<polygon class="st0" points="417.1,321.7 425.4,321.7 425.4,282.1 415.8,282.1 415.8,303.7 400.5,282.1 391.5,282.1 391.5,321.7 
		401.1,321.7 401.1,299 	"/>
	<rect x="432.6" y="282.1" class="st0" width="10.1" height="39.6"/>
	<path class="st0" d="M466.1,322.3c9.9,0,17-5.5,17-17.7v-22.5H473v22.5c0,5.4-2.3,8.7-6.8,8.7c-4.6,0-6.8-3.3-6.8-8.7v-22.5h-10.1
		v22.5C449.3,316.8,456.3,322.3,466.1,322.3"/>
</g>
</svg>
