<?xml version="1.0" encoding="utf-8"?>
<!-- Generator: Adobe Illustrator 19.0.0, SVG Export Plug-In . SVG Version: 6.00 Build 0)  -->
<svg version="1.1" id="Layer_1" xmlns="http://www.w3.org/2000/svg" xmlns:xlink="http://www.w3.org/1999/xlink" x="0px" y="0px"
	 width="445px" height="137.6px" viewBox="0 0 445 137.6" style="enable-background:new 0 0 445 137.6;" xml:space="preserve">
<style type="text/css">
	.st0{fill-rule:evenodd;clip-rule:evenodd;fill:#1D1D1B;}
	.st1{fill-rule:evenodd;clip-rule:evenodd;fill:#D3241F;}
</style>
<path class="st0" d="M49.6,0.3h24.8v96.1c0,4.6-3,8.6-9.1,12c-6.1,3.4-13.2,5-21.4,5H29.2c-8,0-14.9-1.9-20.6-5.6
	C2.9,104.1,0,99.9,0,95.3v-27h25.1v35.4h24.6V0.3z M115.4,113.5L115.4,113.5H90.4v-96c0-4.5,3.1-8.4,9.3-11.9
	c6.2-3.5,13.3-5.3,21.3-5.3h13.8c8,0,15.1,1.8,21.3,5.4c6.2,3.6,9.3,7.7,9.3,12.2v95.6h-24.8V78.2h-25.1V113.5z M115.4,10.2
	L115.4,10.2v58.1h25.1V10.2H115.4z M233.7,51.8L233.7,51.8V0.6H258v44.9L245,56.7l13.1,11v52.4c-6.8-1.1-12.5-3.2-17.2-6.4
	c-4.7-3.2-7.1-6.7-7.1-10.7V61.9h-25.1v51.5h-25.1V0.6h25.1v51.3H233.7z M277.9,95.3L277.9,95.3V17.2c0-4.4,3.2-8.4,9.5-11.9
	c6.4-3.5,13.4-5.3,21-5.3h13.8c7.8,0,14.9,1.9,21.2,5.6c6.3,3.8,9.4,7.8,9.4,12.2v78.7c0,4.6-3,8.6-9.1,12c-6.1,3.4-13.2,5-21.4,5
	h-14.9c-7.8,0-14.7-1.9-20.6-5.6C280.8,104.1,277.9,99.9,277.9,95.3 M302.9,10.2L302.9,10.2v93.2h24.6V10.2H302.9z M370.6,0.3
	L370.6,0.3h43.9c7.8,0,14.9,1.7,21.2,5.2c6.3,3.5,9.4,7.5,9.4,12v96h-24.8V10.2h-24.5v103.3h-25.1V0.3z"/>
<rect x="0" y="127.5" class="st1" width="445" height="10.1"/>
</svg>
