<svg xmlns="http://www.w3.org/2000/svg" width="152" height="23" viewBox="0 0 152 23">
    <g fill="none" fill-rule="nonzero">
        <path fill="#333334" d="M30.273 20.98v-2.384h.482c2.262 0 2.794-.127 3.415-1.35l-6.361-11.4h3.07l4.689 8.563 4.215-8.563h2.962L36.567 18.14c-1.183 2.343-2.106 2.792-5.807 2.835l-.487.005zM50.624 17.292h-4.17c-2.628 0-3.8-1.103-3.8-3.577v-.689c0-2.884 2.243-3.112 5.177-3.112h2.793c1.513 0 2.513.099 3.24.564v-.791c0-1.258-.44-1.624-3.361-1.624h-2.55c-2.129 0-2.129.496-2.129.895v.846H43.12v-.989c0-2.76 2.422-3.132 4.792-3.132h2.752c2.857 0 5.905.313 5.905 4.043v7.402h-2.705v-.297c-.645.38-1.608.461-3.24.461zm-2.875-4.999c-2.391 0-2.391.405-2.391 1.138v.323c0 .723 0 1.158 2.31 1.158h2.307c3.35 0 3.89-.306 3.89-1.037v-.464c0-.825-.52-1.118-3.445-1.118h-2.67zM72.369 17.13h-2.704v-7.039c0-1.087 0-2.028-3.322-2.028h-.445c-4.108 0-4.517.785-4.517 2.717v6.35h-2.704V5.846h2.583v.794c.881-.765 2.158-.956 3.727-.956h2.61c4.153 0 4.772 2.496 4.772 3.981v7.465zM83.012 17.292h-2.49c-2.88 0-6.186-.532-6.186-4.67v-2.265c0-4.14 3.306-4.671 6.186-4.671h2.49c2.882 0 6.187.531 6.187 4.671v2.265c.002 4.138-3.305 4.67-6.187 4.67zm-3.014-9.227c-2.211 0-2.958.605-2.958 2.391v2.064c0 1.788.747 2.392 2.958 2.392h3.542c2.211 0 2.957-.604 2.957-2.392v-2.064c0-1.786-.746-2.391-2.957-2.391h-3.542zM99.44 17.292h-3.195c-2.56 0-5.461 0-5.461-3.577v-1.11h2.584v.989c0 .746.145 1.318 1.966 1.318h3.723c2.857 0 2.957-.202 2.957-1.158v-.081c0-.66 0-1.056-1.886-1.056h-5.362c-2.691 0-3.842-.968-3.842-3.233v-.608c0-2.226 1.604-3.092 5.723-3.092h2.672c3.517 0 4.953.89 4.953 3.073v1.027h-2.58v-.582c0-.988-.325-1.138-2.475-1.138h-3.035c-2.554 0-2.554.275-2.554.936v.384c0 .494 0 .853 1.623.853h4.594c2.057 0 4.873 0 4.873 3.537 0 3.518-3.433 3.518-5.278 3.518zM109.592 17.13h-2.703V5.846h2.703V17.13zm0-12.747h-2.703V1.517h2.703v2.866zM125.496 17.13h-3.057l-7.468-4.998h-.118v4.998h-2.704V1.517h2.704v8.235h.224l6.01-3.906h3.053l.606.606-7.01 4.498 8.355 5.584z"/>
        <path fill="#EE312F" d="M130.523 17.13h-3.229v-3.472h3.229zM135.236 20.731h-2.703V5.846h2.58v.757c.73-.589 1.78-.919 3.02-.919h3.297c3.489 0 5.26 1.626 5.26 4.833v1.82c0 3.518-1.605 4.955-5.54 4.955h-3.32c-1.168 0-2.006-.19-2.594-.606v4.045zm2.675-12.666c-1.827 0-2.675.791-2.675 2.493v1.962c0 2 1.062 2.392 2.896 2.392h3.097c1.904 0 2.755-.34 2.755-2.352v-2.023c0-1.676-.392-2.473-2.615-2.473h-3.458zM151.48 17.13h-2.702V1.517h2.702z"/>
        <path fill="#333334" d="M11.673.95c-1.129 0-2.217.174-3.24.496l3.014 1.605.226-.002a8.67 8.67 0 0 1 0 17.339 8.669 8.669 0 0 1-8.662-9.03l-1.583-2.97a10.747 10.747 0 0 0-.526 3.332c0 5.948 4.822 10.77 10.77 10.77 5.947 0 10.77-4.823 10.77-10.77C22.441 5.773 17.62.95 11.672.95z"/>
        <path fill="#333334" d="M17.39 11.72a5.717 5.717 0 0 1-5.717 5.717 5.717 5.717 0 0 1-1.98-.35l1.105-6.292 6.247-1.036c.224.612.346 1.271.346 1.962z"/>
        <path fill="#EE312F" d="M1.045 3.064C3.322 7.8 7.949 16.057 7.949 16.057l1.013-7.095 7.094-1.011S7.8 3.323 3.062 1.045C1.292.194.772-.321.226.225c-.547.547-.03 1.067.819 2.839z"/>
    </g>
</svg>
