<?xml version="1.0" encoding="utf-8"?>
<!-- Generator: Adobe Illustrator 24.1.3, SVG Export Plug-In . SVG Version: 6.00 Build 0)  -->
<svg version="1.1" id="Warstwa_1" xmlns="http://www.w3.org/2000/svg" xmlns:xlink="http://www.w3.org/1999/xlink" x="0px" y="0px"
	 viewBox="0 0 180 45" style="enable-background:new 0 0 180 45;" xml:space="preserve">
<style type="text/css">
	.st0{fill:#374146;}
	.st1{fill:#A0C9EC;}
</style>
<g>
	<g>
		<path class="st0" d="M79.7,24.19c-0.22,2.74,0.57,4.01,2.9,4.16c3.03,0.2,6.1,0.16,9.14,0.02c0.65-0.03,1.47-0.78,1.86-1.41
			c0.7-1.15,2.16-1.85,3.63-1.27c1.41,0.56,0.76,1.75,0.53,2.66c-0.51,2-2.07,3.24-3.94,3.35c-4.42,0.27-8.88,0.48-13.28,0.15
			c-3.27-0.25-4.99-2.55-5.22-5.85c-0.14-2-0.14-4.03,0-6.02c0.24-3.37,2.06-5.6,5.43-5.89c3.81-0.32,7.7-0.39,11.48,0.03
			c4.32,0.47,6.93,4.97,5.71,9.17c-0.12,0.43-1.08,0.86-1.65,0.86c-4.88,0.07-9.76,0.04-14.64,0.04
			C80.98,24.19,80.33,24.19,79.7,24.19z M79.75,20.3c4.75,0,9.3,0,13.93,0c-0.09-1.91-1.32-2.55-2.67-2.62
			c-2.96-0.16-5.94-0.15-8.91-0.07C80.65,17.66,79.79,18.54,79.75,20.3z"/>
		<path class="st0" d="M105.3,32.22c0,1.12-0.04,2.68,0.01,4.25c0.05,1.71-1.2,1.38-2.16,1.38c-0.96,0-2.21,0.36-2.2-1.34
			c0.01-7.06-0.01-14.12,0.02-21.17c0.01-1.29,2.2-1.88,3.81-1.18c0.55,0.24,1.27,0.31,1.85,0.18c4.23-0.93,8.47-0.97,12.66,0.05
			c2.47,0.6,4.01,2.46,4.23,4.97c0.22,2.53,0.26,5.11-0.03,7.63c-0.37,3.29-2.85,5.1-6.87,5.23
			C112.93,32.31,109.23,32.22,105.3,32.22z M112.51,28.47c0,0.02,0,0.05,0,0.07c0.91,0,1.82,0.01,2.74,0c0.43,0,0.85-0.03,1.28-0.07
			c1.93-0.18,2.86-1.08,2.95-3.03c0.07-1.64,0.07-3.28,0-4.92c-0.07-1.77-1.03-2.89-2.83-2.96c-2.67-0.1-5.35-0.14-8.02-0.01
			c-2.08,0.1-3.19,1.36-3.29,3.43c-0.07,1.39-0.06,2.8,0,4.19c0.09,2.06,1.08,3.11,3.17,3.27
			C109.82,28.55,111.17,28.47,112.51,28.47z"/>
		<path class="st0" d="M165.76,32.38c-2.52-0.15-4.8-0.09-7-0.46c-3.02-0.5-4.43-2.58-4.28-5.64c0.05-0.99,0.44-1.53,1.44-1.39
			c0.96,0.13,2.52-0.66,2.61,1.07c0.12,2.2,1.4,2.59,3.18,2.57c2.93-0.03,5.85-0.04,8.78-0.06c1.23-0.01,2.17-0.38,2.16-1.86
			c-0.01-1.4-0.94-1.74-2.07-1.76c-2.99-0.06-5.98-0.06-8.96-0.1c-0.73-0.01-1.47-0.02-2.19-0.1c-3.06-0.33-4.44-1.67-4.62-4.41
			c-0.25-3.88,0.63-5.67,3.98-5.97c4.52-0.4,9.12-0.35,13.65-0.05c2.7,0.18,3.81,1.87,3.62,4.36c-0.04,0.55-0.65,1.49-1.01,1.49
			c-1.01,0.01-2.52,0.84-2.92-0.87c-0.3-1.3-1.07-1.69-2.21-1.7c-2.93-0.02-5.86-0.02-8.78,0.02c-1.08,0.02-2.08,0.21-2.11,1.69
			c-0.03,1.56,1.02,1.81,2.17,1.84c2.8,0.06,5.61,0.03,8.42,0.06c0.85,0.01,1.71,0.02,2.56,0.12c2.99,0.38,4.5,1.92,4.65,4.69
			c0.19,3.45-0.97,5.37-4.05,5.93C170.4,32.27,167.94,32.23,165.76,32.38z"/>
		<path class="st0" d="M138.21,17.67c-1.4,0-2.82-0.11-4.2,0.06c-0.48,0.06-1.24,0.79-1.26,1.25c-0.12,2.43-0.08,4.86-0.02,7.3
			c0.03,1.36,0.82,2.11,2.2,2.2c0.55,0.04,1.09,0.08,1.64,0.09c3.53,0.01,3.83-0.22,3.95-3.8c0.04-1.41,0.63-1.72,1.9-1.73
			c1.31,0,1.95,0.41,1.83,1.79c-0.06,0.66,0.01,1.34-0.02,2.01c-0.14,3.15-1.42,4.84-4.53,5.21c-2.27,0.27-4.64,0.23-6.89-0.13
			c-2.88-0.46-4.17-2.08-4.37-5.04c-0.17-2.42-0.13-4.86-0.06-7.29c0.04-1.39-0.39-2.09-1.86-1.91c-1.32,0.16-1.84-0.38-1.85-1.75
			c0-1.37,0.38-2.12,1.86-1.94c1.49,0.18,2-0.56,1.82-1.92c-0.22-1.73,0.73-1.98,2.19-1.99c1.5-0.01,2.39,0.32,2.16,2.01
			c-0.21,1.59,0.62,1.96,2.04,1.92c2.43-0.08,4.88,0.03,7.31-0.04c1.4-0.04,1.77,0.59,1.76,1.87c0,1.27-0.34,1.95-1.76,1.86
			c-1.27-0.09-2.56-0.02-3.84-0.02C138.21,17.66,138.21,17.67,138.21,17.67z"/>
		<path class="st0" d="M50.2,23c0-2.19,0-4.38,0-6.57c0.01-2.39,1.57-3.27,3.81-2.19c0.42,0.2,1,0.38,1.4,0.26
			c3.89-1.22,7.86-0.94,11.78-0.43c3.05,0.4,4.77,2.4,4.91,5.48c0.16,3.64,0.04,7.3,0.09,10.95c0.03,1.8-1.25,1.41-2.29,1.46
			c-1.11,0.05-2.07,0.02-2.05-1.55c0.06-3.16,0.03-6.33,0-9.49c-0.02-2.21-0.68-3.13-2.82-3.26c-2.42-0.16-4.88-0.15-7.3,0.07
			c-2.35,0.21-3.26,1.35-3.33,3.8c-0.08,2.86-0.1,5.72-0.01,8.58c0.05,1.62-0.72,1.9-2.11,1.89c-1.36-0.01-2.2-0.21-2.13-1.87
			C50.28,27.75,50.2,25.37,50.2,23z"/>
		<path class="st0" d="M146.68,22.82c0-2.37,0.05-4.75-0.02-7.12c-0.04-1.4,0.58-1.84,1.87-1.75c1.12,0.08,2.4-0.29,2.39,1.59
			c-0.04,4.99-0.03,9.98,0.01,14.97c0.01,1.65-1.11,1.43-2.13,1.43c-1.04,0.01-2.14,0.18-2.11-1.46
			C146.73,27.93,146.69,25.38,146.68,22.82C146.69,22.82,146.68,22.82,146.68,22.82z"/>
		<path class="st0" d="M150.87,9.25c0.37,1.74-0.33,2.33-2.12,2.35c-1.77,0.02-2.14-0.7-2.11-2.27c0.02-1.53,0.12-2.5,2.11-2.46
			C150.57,6.91,151.21,7.53,150.87,9.25z"/>
	</g>
	<g>
		<path class="st0" d="M21.56,6.39c-1.74,0-3.42,0.26-5,0.76l4.48,2.53c0.17-0.01,0.34-0.01,0.52-0.01c7.53,0,13.63,6.1,13.63,13.63
			s-6.1,13.63-13.63,13.63c-7.53,0-13.63-6.1-13.63-13.63c0-0.16,0-0.32,0.01-0.47l-2.56-4.41c-0.47,1.54-0.72,3.18-0.72,4.88
			c0,9.34,7.57,16.9,16.9,16.9s16.9-7.57,16.9-16.9S30.9,6.39,21.56,6.39z M10.31,15.6c1.27-1.87,3.01-3.4,5.03-4.44
			c0.22-0.12,0.45-0.22,0.68-0.33L12.54,9c-0.17,0.11-0.34,0.22-0.5,0.33c-1.37,0.93-2.59,2.05-3.63,3.34
			c-0.37,0.46-0.73,0.95-1.05,1.45l1.84,3.43C9.52,16.87,9.89,16.21,10.31,15.6z"/>
		<path class="st1" d="M28.22,17.29l-10.95,1.45l-1.55,10.95L10.1,19.23l-0.9-1.68l-1.84-3.43l-0.85-1.59L3.29,6.55
			C2.74,5.53,3.86,4.4,4.89,4.95l6.24,3.3L12.54,9l3.48,1.84l1.99,1.05L28.22,17.29z"/>
		<path class="st0" d="M30.81,23.29c0,5.1-4.14,9.25-9.25,9.25c-1.09,0-2.12-0.19-3.09-0.53l1.76-10.17l10.12-1.43
			C30.65,21.31,30.81,22.28,30.81,23.29z"/>
	</g>
</g>
</svg>
