<svg version="1.2" baseProfile="tiny-ps" xmlns="http://www.w3.org/2000/svg" viewBox="0 0 823 299" width="823" height="299">
	<title>logo-librana-green-svg</title>
	<style>
		tspan { white-space:pre }
		.s0 { fill: #375451 } 
	</style>
	<path id="Layer" class="s0" d="m0.82 50.88h23.43v99.69h56v21.84h-79.43v-121.53z" />
	<path id="Layer" class="s0" d="m114.43 50.88h23.43v121.53h-23.43v-121.53z" />
	<path id="Layer" fill-rule="evenodd" class="s0" d="m180.13 50.88h39.45c13.27 0 23.37 2.82 30.3 8.45c6.93 5.63 10.39 13.56 10.39 23.78c0.02 1.16-0.03 2.32-0.15 3.47c-0.12 1.15-0.32 2.3-0.58 3.43c-0.27 1.13-0.61 2.24-1.01 3.32c-0.41 1.09-0.88 2.14-1.42 3.17c-0.56 0.99-1.19 1.94-1.9 2.84c-0.71 0.9-1.48 1.74-2.31 2.51c-0.84 0.78-1.73 1.49-2.67 2.12c-0.95 0.64-1.94 1.2-2.97 1.69c8.67 1.53 15.1 4.84 19.29 9.95c4.19 5.11 6.28 12.06 6.25 20.87c0 11.39-3.82 20.22-11.45 26.51c-7.63 6.29-18.08 9.43-31.33 9.42h-49.87v-121.53zm37.87 48.12c12 0 18-4.41 18-13.22c0-8.81-6-13.22-18-13.21h-14.44v26.43h14.44zm9.69 51.78c13.73 0 20.6-5.23 20.6-15.68c0-10.21-6.87-15.31-20.6-15.32h-24.13v31h24.13z" />
	<path id="Layer" fill-rule="evenodd" class="s0" d="m307 50.88h39.81c15.03 0 26.7 3.58 35 10.74c8.3 7.16 12.44 17.2 12.42 30.12c0.04 1.7-0.04 3.39-0.22 5.08c-0.18 1.69-0.48 3.36-0.88 5.01c-0.4 1.65-0.91 3.27-1.52 4.85c-0.61 1.58-1.32 3.12-2.14 4.61c-0.81 1.42-1.71 2.78-2.7 4.08c-0.99 1.3-2.06 2.53-3.21 3.69c-1.15 1.16-2.38 2.24-3.67 3.23c-1.29 0.99-2.65 1.9-4.06 2.72l22.54 47.38h-25.36l-18-40.68c-0.82 0.09-1.64 0.17-2.46 0.23c-0.82 0.07-1.64 0.12-2.46 0.16c-0.82 0.04-1.64 0.08-2.47 0.1c-0.82 0.02-1.65 0.03-2.47 0.03l-14.76 0v40.16h-23.38v-121.5zm37.69 59.89c16.79 0 25.19-6.4 25.19-19.2c0-12.8-8.4-19.2-25.19-19.2h-14.31v38.4h14.31z" />
	<path id="Layer" class="s0" d="m483.26 96.24l-38.63 76.18h-24.25l62.88-124.01h1.76l62.89 124.01h-24.26l-38.63-76.18h-0.07l-0.81-1.68l-0.8 1.68h-0.08v0z" />
	<path id="Layer" class="s0" d="m484.22 135.62l16.77 0.76c0.11 4.53-1.61 8.9-4.77 12.14c-3.16 3.24-7.5 5.07-12.02 5.07c-4.53 0-8.86-1.83-12.02-5.07c-3.16-3.24-4.88-7.62-4.77-12.14l16.82-0.76z" />
	<path id="Layer" class="s0" d="m757.94 97.41l-38.63 76.18h-24.25l62.88-124h1.76l62.88 124h-24.25l-38.63-76.18h-0.07l-0.81-1.68l-0.81 1.68h-0.07v0z" />
	<path id="Layer" class="s0" d="m758.9 135.79l17.53 0.8c0.16 4.76-1.62 9.38-4.93 12.81c-3.31 3.42-7.87 5.36-12.63 5.36c-4.76 0-9.32-1.93-12.63-5.36c-3.31-3.42-5.09-8.05-4.93-12.81l17.59-0.8z" />
	<path id="Layer" class="s0" d="m420.21 0.35h402v19.37h-402v-19.37z" />
	<path id="Layer" fill-rule="evenodd" class="s0" d="m19.84 254.05l-2.59-7.34h-10.1l-2.58 7.34h-4.57l9.83-26.52h4.8l9.81 26.52h-4.6zm-3.71-11l-2.51-7.25c-0.09-0.31-0.23-0.75-0.41-1.31c-0.18-0.56-0.36-1.15-0.54-1.76c-0.18-0.61-0.34-1.1-0.46-1.51c-0.12 0.49-0.26 1-0.44 1.65c-0.18 0.65-0.34 1.18-0.51 1.72c-0.17 0.54-0.28 0.94-0.37 1.21l-2.52 7.2l7.76 0.05z" />
	<path id="Layer" class="s0" d="m51.45 254.05h-5.33l-12.93-21.05h-0.19c0 0.72 0.1 1.47 0.14 2.27c0.04 0.8 0.08 1.63 0.11 2.47c0.03 0.84 0.06 1.69 0.08 2.54v13.81h-3.94v-26.45h5.29l12.92 20.93h0.13c0-0.61-0.06-1.32-0.09-2.11c-0.03-0.79-0.07-1.62-0.1-2.47c-0.03-0.85-0.05-1.67-0.06-2.46v-13.89h3.95l0.02 26.41z" />
	<path id="Layer" class="s0" d="m81.91 254.05h-5.33l-12.93-21.05h-0.17c0.05 0.72 0.1 1.47 0.14 2.27c0.04 0.8 0.08 1.63 0.11 2.47c0.03 0.84 0.05 1.69 0.08 2.54v13.81h-3.94v-26.45h5.29l12.92 20.93h0.13c0-0.61-0.06-1.32-0.09-2.11c-0.03-0.79-0.07-1.62-0.1-2.47c-0.03-0.85-0.05-1.67-0.07-2.46v-13.89h4l-0.04 26.41z" />
	<path id="Layer" fill-rule="evenodd" class="s0" d="m106.7 254.05l-2.59-7.34h-10.11l-2.58 7.34h-4.57l9.83-26.52h4.8l9.81 26.52h-4.59zm-3.7-11.05l-2.51-7.25c-0.1-0.31-0.23-0.75-0.41-1.31c-0.18-0.56-0.37-1.15-0.55-1.76l-0.45-1.51c-0.12 0.49-0.27 1-0.44 1.65c-0.17 0.65-0.34 1.18-0.51 1.72c-0.17 0.54-0.28 0.94-0.37 1.21l-2.54 7.25h7.78z" />
	<path id="Layer" class="s0" d="m158.6 227.64l-6.9 26.41h-4.7l-4.41-15.83l-0.36-1.36c-0.13-0.53-0.26-1.06-0.39-1.62c-0.13-0.56-0.23-1.06-0.32-1.53c-0.09-0.47-0.15-0.82-0.19-1.09c0 0.27-0.08 0.63-0.16 1.09l-0.3 1.5c-0.12 0.55-0.24 1.09-0.37 1.63c-0.13 0.54-0.25 1-0.36 1.42l-4.34 15.79h-4.8l-6.87-26.41h4.36l3.81 15.48c0.12 0.49 0.24 1 0.37 1.6c0.13 0.6 0.25 1.14 0.36 1.72c0.11 0.58 0.22 1.14 0.32 1.69c0.1 0.55 0.17 1 0.23 1.49c0.06-0.46 0.14-1 0.24-1.52c0.1-0.52 0.2-1.14 0.31-1.72c0.11-0.58 0.24-1.15 0.36-1.69c0.12-0.54 0.26-1 0.39-1.46l4.28-15.59h4.25l4.39 15.64c0.13 0.45 0.26 0.95 0.39 1.5c0.13 0.55 0.25 1.12 0.37 1.7c0.12 0.58 0.23 1.14 0.32 1.68c0.09 0.54 0.18 1 0.24 1.46c0.08-0.59 0.19-1.26 0.32-2c0.13-0.74 0.29-1.53 0.46-2.31c0.17-0.78 0.33-1.51 0.5-2.17l3.8-15.48l4.4-0.02z" />
	<path id="Layer" class="s0" d="m163.82 254.05v-9.05l-1.59 0.94l-1.63-2.8l3.22-2v-13.5h4.33v10.89l3.91-2.35l1.68 2.85l-5.59 3.33v8h11.22v3.69l-15.55 0z" />
	<path id="Layer" fill-rule="evenodd" class="s0" d="m208.82 242.22c-0.03 0.47-0.08 0.93-0.14 1.4c-0.06 0.46-0.15 0.93-0.24 1.38c-0.1 0.46-0.21 0.91-0.35 1.36c-0.12 0.39-0.25 0.78-0.41 1.16c-0.16 0.38-0.33 0.75-0.52 1.11c-0.19 0.36-0.41 0.71-0.64 1.05c-0.23 0.34-0.48 0.67-0.74 0.98c-0.26 0.3-0.54 0.59-0.83 0.86c-0.29 0.27-0.6 0.52-0.93 0.76c-0.32 0.23-0.66 0.45-1.01 0.64c-0.35 0.19-0.71 0.36-1.08 0.51c-0.43 0.17-0.87 0.32-1.31 0.45c-0.44 0.13-0.89 0.24-1.35 0.32c-0.45 0.08-0.91 0.15-1.37 0.18c-0.46 0.04-0.92 0.05-1.39 0.05c-0.47 0.01-0.94-0.01-1.41-0.04c-0.47-0.04-0.93-0.1-1.39-0.18c-0.46-0.08-0.92-0.19-1.37-0.32c-0.45-0.13-0.9-0.28-1.33-0.45c-0.37-0.15-0.73-0.32-1.08-0.51c-0.35-0.19-0.69-0.41-1.01-0.64c-0.32-0.23-0.63-0.49-0.93-0.76c-0.29-0.27-0.57-0.56-0.83-0.86c-0.26-0.32-0.51-0.64-0.74-0.98c-0.23-0.34-0.44-0.69-0.63-1.06c-0.19-0.36-0.36-0.74-0.52-1.12c-0.15-0.38-0.28-0.77-0.4-1.16c-0.13-0.45-0.24-0.91-0.34-1.37c-0.1-0.46-0.18-0.93-0.24-1.39c-0.06-0.47-0.11-0.94-0.14-1.41c-0.03-0.47-0.04-0.94-0.03-1.41c-0.01-0.61 0.01-1.22 0.06-1.83c0.05-0.61 0.13-1.21 0.24-1.81c0.11-0.6 0.26-1.19 0.43-1.77c0.17-0.58 0.38-1.16 0.61-1.72c0.21-0.49 0.45-0.96 0.73-1.41c0.28-0.45 0.6-0.88 0.94-1.28c0.35-0.4 0.73-0.77 1.13-1.12c0.41-0.34 0.84-0.65 1.29-0.93c0.53-0.3 1.08-0.56 1.64-0.78c0.57-0.22 1.15-0.41 1.74-0.55c0.59-0.14 1.19-0.24 1.8-0.3c0.61-0.06 1.21-0.08 1.82-0.05c0.6-0.02 1.19 0 1.78 0.06c0.59 0.06 1.18 0.16 1.76 0.3c0.58 0.14 1.15 0.32 1.7 0.54c0.55 0.22 1.09 0.48 1.61 0.77c0.45 0.28 0.88 0.59 1.28 0.93c0.4 0.34 0.78 0.72 1.13 1.12c0.35 0.4 0.66 0.83 0.94 1.28c0.28 0.45 0.53 0.92 0.74 1.4c0.24 0.57 0.44 1.14 0.62 1.73c0.18 0.59 0.32 1.18 0.43 1.79c0.11 0.6 0.19 1.21 0.24 1.82c0.05 0.61 0.07 1.22 0.05 1.84c0 0.47-0.01 0.94-0.04 1.41zm-20.13-1.41c-0.01 0.45 0 0.9 0.03 1.34c0.03 0.45 0.08 0.89 0.15 1.33c0.07 0.44 0.16 0.88 0.27 1.32c0.11 0.43 0.24 0.86 0.38 1.29c0.12 0.34 0.26 0.68 0.43 1c0.17 0.32 0.36 0.63 0.58 0.92c0.22 0.29 0.46 0.56 0.71 0.82c0.26 0.25 0.54 0.49 0.83 0.7c0.67 0.39 1.39 0.69 2.14 0.89c0.75 0.2 1.52 0.31 2.3 0.31c0.78 0 1.55-0.1 2.3-0.31c0.75-0.2 1.47-0.5 2.14-0.89c0.29-0.21 0.57-0.44 0.83-0.7c0.26-0.25 0.5-0.53 0.71-0.82c0.21-0.29 0.41-0.6 0.57-0.92c0.17-0.32 0.31-0.65 0.42-1c0.14-0.42 0.27-0.85 0.37-1.29c0.11-0.43 0.19-0.87 0.26-1.32c0.07-0.44 0.12-0.89 0.15-1.33c0.03-0.45 0.04-0.89 0.03-1.34c0.04-0.63 0.02-1.27-0.04-1.9c-0.06-0.63-0.17-1.26-0.33-1.87c-0.16-0.62-0.36-1.22-0.61-1.8c-0.25-0.58-0.54-1.15-0.87-1.69c-1.23-1.76-3.2-2.64-5.89-2.64c-0.39-0.02-0.78 0-1.17 0.04c-0.39 0.04-0.77 0.12-1.15 0.22c-0.38 0.1-0.75 0.23-1.1 0.39c-0.36 0.16-0.7 0.34-1.03 0.55c-0.3 0.21-0.57 0.44-0.84 0.69c-0.26 0.25-0.5 0.52-0.72 0.81c-0.22 0.29-0.41 0.59-0.59 0.91c-0.17 0.32-0.32 0.65-0.44 0.99c-0.15 0.42-0.27 0.85-0.38 1.29c-0.11 0.44-0.2 0.88-0.27 1.32c-0.07 0.44-0.12 0.89-0.15 1.34c-0.03 0.45-0.04 0.9-0.03 1.34z" />
	<path id="Layer" fill-rule="evenodd" class="s0" d="m237.4 242.52c-0.06 0.64-0.16 1.28-0.3 1.9c-0.14 0.63-0.32 1.25-0.54 1.85c-0.22 0.6-0.48 1.2-0.77 1.77c-0.27 0.49-0.58 0.96-0.92 1.4c-0.34 0.44-0.72 0.85-1.13 1.24c-0.41 0.38-0.85 0.73-1.31 1.04c-0.46 0.31-0.95 0.59-1.46 0.82c-0.6 0.27-1.21 0.5-1.83 0.7c-0.62 0.2-1.26 0.36-1.9 0.49c-0.64 0.13-1.29 0.22-1.94 0.27c-0.65 0.05-1.31 0.07-1.96 0.05h-7.34v-26.41h8.13c0.61-0.02 1.22 0 1.82 0.06c0.61 0.05 1.21 0.14 1.8 0.27c0.6 0.12 1.18 0.28 1.76 0.47c0.58 0.19 1.14 0.42 1.69 0.67c0.48 0.23 0.95 0.5 1.39 0.81c0.44 0.3 0.86 0.64 1.25 1.01c0.39 0.37 0.75 0.77 1.08 1.19c0.33 0.42 0.63 0.87 0.89 1.34c0.29 0.55 0.54 1.11 0.75 1.69c0.21 0.58 0.39 1.17 0.53 1.77c0.14 0.6 0.24 1.21 0.3 1.82c0.06 0.61 0.08 1.23 0.06 1.85c0.02 0.64 0 1.29-0.05 1.93zm-4.48-1.8c0.02-0.46 0.01-0.91-0.02-1.37c-0.03-0.46-0.09-0.91-0.18-1.36c-0.08-0.45-0.19-0.89-0.33-1.33c-0.13-0.44-0.29-0.87-0.47-1.28c-0.15-0.33-0.34-0.65-0.54-0.96c-0.21-0.3-0.44-0.59-0.69-0.85c-0.25-0.27-0.53-0.51-0.83-0.73c-0.3-0.22-0.61-0.41-0.94-0.58c-0.38-0.18-0.76-0.33-1.16-0.46c-0.4-0.13-0.8-0.24-1.21-0.32c-0.41-0.08-0.82-0.14-1.24-0.18c-0.42-0.04-0.83-0.05-1.25-0.03h-3.71v19.17h3.08c3.18 0 5.55-0.82 7.13-2.44c1.58-1.62 2.35-4.06 2.35-7.27z" />
	<path id="Layer" fill-rule="evenodd" class="s0" d="m261 254.05l-2.58-7.34h-10.1l-2.58 7.34h-4.57l9.83-26.52h4.8l9.81 26.52h-4.61zm-3.7-11l-2.51-7.25l-0.42-1.31c-0.18-0.57-0.36-1.15-0.54-1.76l-0.45-1.51c-0.12 0.49-0.27 1-0.44 1.65l-0.51 1.72c-0.16 0.53-0.28 0.94-0.37 1.21l-2.56 7.2l7.8 0.05z" />
	<path id="Layer" fill-rule="evenodd" class="s0" d="m278 227.64c0.48-0.02 0.96-0.01 1.44 0.02c0.48 0.03 0.95 0.08 1.43 0.15c0.47 0.07 0.94 0.16 1.41 0.27c0.47 0.11 0.93 0.25 1.38 0.4c0.34 0.11 0.66 0.25 0.98 0.42c0.31 0.17 0.61 0.36 0.89 0.57c0.28 0.21 0.55 0.45 0.79 0.71c0.24 0.26 0.46 0.54 0.66 0.83c0.19 0.32 0.36 0.66 0.51 1c0.14 0.35 0.26 0.7 0.36 1.07c0.09 0.36 0.16 0.73 0.2 1.11c0.04 0.37 0.05 0.75 0.04 1.12c0.01 0.29 0 0.58-0.03 0.86c-0.03 0.29-0.07 0.57-0.13 0.85c-0.06 0.28-0.14 0.56-0.23 0.83c-0.09 0.27-0.21 0.54-0.33 0.8c-0.11 0.22-0.24 0.44-0.38 0.64c-0.14 0.21-0.29 0.41-0.44 0.6c-0.16 0.19-0.33 0.37-0.51 0.55c-0.18 0.17-0.37 0.34-0.56 0.49c-0.19 0.15-0.39 0.29-0.59 0.42c-0.2 0.13-0.41 0.26-0.62 0.38c-0.21 0.12-0.42 0.23-0.64 0.34c-0.22 0.1-0.44 0.2-0.66 0.29l7.49 11.69h-4.89l-6.4-10.57h-4.23v10.57h-4.33v-26.41h7.42zm-3.09 3.63v8.61h3c0.38 0.03 0.77 0.03 1.15 0c0.38-0.03 0.76-0.1 1.13-0.19c0.37-0.1 0.73-0.22 1.08-0.38c0.35-0.16 0.69-0.34 1.01-0.55c0.23-0.2 0.44-0.43 0.62-0.68c0.18-0.25 0.33-0.52 0.45-0.81c0.12-0.29 0.2-0.58 0.25-0.89c0.05-0.3 0.06-0.61 0.04-0.92c0.03-0.31 0.02-0.62-0.03-0.92c-0.05-0.31-0.14-0.6-0.27-0.89c-0.13-0.28-0.29-0.55-0.48-0.79c-0.19-0.24-0.42-0.46-0.67-0.64c-0.34-0.18-0.7-0.34-1.07-0.47c-0.37-0.13-0.74-0.24-1.12-0.32c-0.38-0.08-0.77-0.13-1.16-0.16c-0.39-0.03-0.78-0.03-1.17 0h-2.77z" />
	<path id="Layer" class="s0" d="m310.62 254.05h-15v-26.41h15v3.64h-10.62v7.18h10v3.63h-10v8.29h10.62v3.67z" />
	<path id="Layer" class="s0" d="m337.93 254.05h-5l-8.2-12l-2.61 2.11v9.87h-4.33v-26.39h4.33v12.62c0.53-0.65 1.07-1.29 1.61-1.94c0.54-0.65 1.09-1.3 1.63-2l7.42-8.72h4.92l-9.87 11.58l10.1 14.87z" />
	<path id="Layer" class="s0" d="m23.61 298.45h-5l-8.2-12l-2.61 2.11v9.87h-4.33v-26.43h4.33v12.63c0.53-0.65 1.07-1.29 1.61-1.94c0.54-0.65 1.09-1.3 1.63-2l7.42-8.73h4.92l-9.87 11.59l10.1 14.9z" />
	<path id="Layer" fill-rule="evenodd" class="s0" d="m44.93 298.45l-2.58-7.34h-10.1l-2.59 7.34h-4.57l9.83-26.52h4.81l9.81 26.52h-4.61zm-3.7-11l-2.52-7.25c-0.09-0.31-0.23-0.75-0.41-1.31c-0.18-0.56-0.36-1.15-0.54-1.76l-0.45-1.51c-0.12 0.49-0.27 1.04-0.45 1.65c-0.17 0.61-0.34 1.18-0.5 1.71c-0.16 0.53-0.29 0.95-0.37 1.22l-2.53 7.25l7.77 0z" />
	<path id="Layer" class="s0" d="m76.54 298.45h-5.33l-12.93-21.09h-0.16c0 0.71 0.09 1.47 0.13 2.27c0.04 0.8 0.08 1.62 0.11 2.47c0.03 0.85 0.06 1.69 0.08 2.55v13.8h-3.94v-26.45h5.3l12.91 21h0.13c0-0.61-0.05-1.32-0.09-2.11c-0.04-0.79-0.07-1.62-0.1-2.47c-0.03-0.85-0.05-1.67-0.06-2.46v-13.96h3.95v26.45z" />
	<path id="Layer" class="s0" d="m96.22 275.34c-0.29 0-0.58 0.01-0.87 0.03c-0.29 0.03-0.58 0.07-0.86 0.13c-0.28 0.06-0.57 0.13-0.84 0.22c-0.28 0.09-0.55 0.19-0.81 0.31c-0.25 0.11-0.48 0.24-0.71 0.39c-0.23 0.14-0.45 0.3-0.66 0.47c-0.21 0.17-0.41 0.35-0.6 0.54c-0.19 0.19-0.37 0.39-0.54 0.61c-0.18 0.23-0.35 0.48-0.5 0.72c-0.16 0.25-0.3 0.51-0.43 0.77c-0.13 0.26-0.25 0.53-0.36 0.81c-0.11 0.27-0.2 0.55-0.28 0.84c-0.2 0.77-0.35 1.55-0.44 2.34c-0.09 0.79-0.12 1.58-0.09 2.38c0.03 0.79 0.11 1.59 0.25 2.37c0.14 0.78 0.34 1.55 0.6 2.3c0.12 0.34 0.28 0.68 0.45 1c0.18 0.32 0.38 0.62 0.6 0.91c0.22 0.29 0.47 0.56 0.74 0.81c0.27 0.25 0.55 0.48 0.85 0.68c0.33 0.21 0.68 0.39 1.04 0.54c0.36 0.15 0.73 0.28 1.11 0.38c0.38 0.1 0.76 0.17 1.15 0.21c0.39 0.04 0.78 0.06 1.17 0.04c0.28 0 0.55 0 0.83-0.02c0.28-0.01 0.55-0.03 0.83-0.06c0.27-0.03 0.55-0.06 0.82-0.1c0.27-0.04 0.54-0.09 0.82-0.14c0.28-0.06 0.56-0.12 0.83-0.19c0.28-0.07 0.55-0.14 0.83-0.21c0.27-0.07 0.55-0.15 0.82-0.23c0.27-0.08 0.54-0.17 0.81-0.26l0 3.69c-0.26 0.1-0.53 0.2-0.79 0.29c-0.27 0.09-0.54 0.17-0.81 0.25c-0.27 0.08-0.54 0.15-0.82 0.21c-0.27 0.06-0.55 0.12-0.83 0.17c-0.31 0.05-0.63 0.1-0.94 0.13c-0.32 0.04-0.63 0.07-0.95 0.09c-0.32 0.02-0.63 0.04-0.95 0.05c-0.32 0.01-0.64 0.01-0.95 0.01c-0.59 0.02-1.17 0-1.76-0.06c-0.58-0.06-1.16-0.16-1.73-0.3c-0.57-0.14-1.13-0.32-1.67-0.54c-0.54-0.22-1.07-0.48-1.58-0.77c-0.44-0.28-0.87-0.59-1.26-0.94c-0.4-0.34-0.77-0.72-1.1-1.12c-0.34-0.4-0.65-0.83-0.92-1.28c-0.27-0.45-0.51-0.92-0.71-1.4c-0.23-0.57-0.43-1.14-0.6-1.73c-0.17-0.59-0.31-1.18-0.42-1.78c-0.11-0.6-0.19-1.21-0.24-1.82c-0.05-0.61-0.06-1.22-0.05-1.83c-0.01-0.46 0.01-0.93 0.04-1.39c0.03-0.46 0.08-0.92 0.15-1.38c0.07-0.46 0.16-0.91 0.26-1.37c0.11-0.45 0.23-0.9 0.37-1.34c0.13-0.39 0.27-0.78 0.44-1.16c0.17-0.38 0.35-0.75 0.55-1.11c0.2-0.36 0.42-0.71 0.66-1.05c0.24-0.34 0.49-0.66 0.77-0.98c0.27-0.3 0.56-0.59 0.86-0.86c0.3-0.27 0.62-0.53 0.95-0.76c0.33-0.24 0.67-0.45 1.03-0.65c0.35-0.2 0.72-0.38 1.1-0.53c0.42-0.17 0.86-0.32 1.3-0.45c0.44-0.13 0.89-0.24 1.34-0.32c0.45-0.08 0.91-0.15 1.36-0.18c0.46-0.04 0.92-0.05 1.37-0.04c0.33 0 0.66 0.01 0.98 0.03c0.33 0.02 0.65 0.05 0.98 0.09c0.33 0.04 0.65 0.09 0.97 0.14c0.32 0.06 0.64 0.12 0.96 0.2c0.31 0.07 0.61 0.15 0.92 0.24c0.3 0.09 0.6 0.18 0.9 0.29c0.3 0.1 0.59 0.22 0.89 0.33c0.29 0.12 0.58 0.25 0.87 0.38l-1.51 3.58c-0.23-0.11-0.47-0.21-0.71-0.31c-0.24-0.1-0.48-0.2-0.72-0.29c-0.24-0.09-0.48-0.18-0.72-0.27c-0.24-0.09-0.49-0.17-0.73-0.25c-0.25-0.08-0.5-0.15-0.75-0.21c-0.25-0.06-0.51-0.11-0.76-0.15c-0.26-0.04-0.51-0.07-0.77-0.1c-0.26-0.02-0.52-0.03-0.78-0.04z" />
	<path id="Layer" class="s0" d="m124.85 298.45h-15v-26.45h15v3.65h-10.62v7.18h10v3.63h-10v8.29h10.62v3.7z" />
	<path id="Layer" class="s0" d="m132 298.45v-26.45h4.34v22.73h11.22v3.69l-15.56 0.03z" />
	<path id="Layer" fill-rule="evenodd" class="s0" d="m170 298.45l-2.59-7.34h-10.11l-2.59 7.34h-4.57l9.86-26.52h4.81l9.8 26.52l-4.61 0zm-3.71-11l-2.51-7.25c-0.09-0.31-0.23-0.75-0.41-1.31c-0.18-0.56-0.36-1.15-0.54-1.76c-0.18-0.61-0.34-1.1-0.46-1.51c-0.12 0.49-0.26 1-0.44 1.65c-0.18 0.65-0.34 1.18-0.5 1.71c-0.16 0.53-0.29 0.95-0.37 1.22l-2.53 7.25l7.76 0z" />
	<path id="Layer" fill-rule="evenodd" class="s0" d="m187 272c0.48-0.01 0.96 0 1.43 0.02c0.48 0.03 0.95 0.08 1.42 0.15c0.47 0.07 0.94 0.16 1.41 0.27c0.46 0.11 0.92 0.24 1.38 0.39c0.34 0.11 0.66 0.26 0.98 0.42c0.31 0.17 0.61 0.36 0.9 0.58c0.28 0.22 0.55 0.45 0.79 0.71c0.24 0.26 0.47 0.54 0.67 0.83c0.19 0.32 0.36 0.66 0.5 1c0.14 0.35 0.26 0.7 0.35 1.07c0.09 0.36 0.16 0.73 0.2 1.11c0.04 0.37 0.05 0.75 0.04 1.12c0.01 0.29 0 0.58-0.03 0.86c-0.03 0.29-0.07 0.57-0.13 0.85c-0.06 0.28-0.14 0.56-0.23 0.83c-0.09 0.27-0.2 0.54-0.33 0.8c-0.11 0.22-0.24 0.44-0.38 0.64c-0.14 0.21-0.29 0.41-0.45 0.6c-0.16 0.19-0.33 0.37-0.51 0.55c-0.18 0.17-0.37 0.34-0.57 0.49c-0.19 0.15-0.39 0.29-0.59 0.42c-0.2 0.13-0.41 0.26-0.62 0.38c-0.21 0.12-0.42 0.23-0.64 0.34c-0.22 0.1-0.44 0.2-0.66 0.29l7.5 11.69h-4.9l-6.39-10.57h-4.23v10.57h-4.34v-26.42h7.43zm-0.29 3.64h-2.8v8.61h3c0.38 0.03 0.76 0.03 1.15 0c0.38-0.03 0.76-0.1 1.13-0.19c0.37-0.1 0.73-0.22 1.08-0.38c0.35-0.16 0.68-0.34 1-0.55c0.23-0.2 0.44-0.43 0.62-0.68c0.18-0.25 0.33-0.52 0.45-0.81c0.12-0.29 0.2-0.58 0.25-0.89c0.05-0.3 0.06-0.61 0.04-0.92c0.03-0.31 0.02-0.62-0.03-0.93c-0.05-0.31-0.14-0.6-0.27-0.89c-0.13-0.28-0.29-0.55-0.48-0.79c-0.19-0.24-0.42-0.46-0.67-0.64c-0.34-0.18-0.7-0.33-1.06-0.46c-0.36-0.13-0.74-0.23-1.12-0.31c-0.38-0.08-0.76-0.13-1.15-0.15c-0.39-0.02-0.77-0.02-1.16 0.01l0.02-0.03z" />
	<path id="Layer" class="s0" d="m204.66 298.45v-26.45h4.34v26.42l-4.34 0.03z" />
	<path id="Layer" fill-rule="evenodd" class="s0" d="m233.8 298.45l-2.58-7.34h-10.1l-2.58 7.34h-4.54l9.82-26.52h4.81l9.81 26.52h-4.64zm-3.7-11l-2.51-7.25l-0.42-1.31c-0.18-0.57-0.36-1.15-0.54-1.76l-0.45-1.51c-0.12 0.49-0.27 1-0.44 1.65l-0.51 1.71c-0.16 0.54-0.29 0.95-0.37 1.22l-2.53 7.25l7.77 0z" />
	<path id="Layer" fill-rule="evenodd" class="s0" d="m261.89 272c0.48-0.01 0.96 0 1.43 0.02c0.48 0.03 0.95 0.08 1.43 0.15c0.47 0.07 0.94 0.16 1.41 0.27c0.47 0.11 0.93 0.24 1.38 0.39c0.34 0.11 0.66 0.26 0.97 0.42c0.31 0.17 0.61 0.36 0.89 0.58c0.28 0.22 0.55 0.45 0.79 0.71c0.24 0.26 0.47 0.54 0.66 0.83c0.19 0.32 0.36 0.66 0.51 1c0.14 0.35 0.26 0.7 0.36 1.07c0.09 0.36 0.16 0.73 0.2 1.11c0.04 0.37 0.05 0.75 0.04 1.12c0.01 0.29 0 0.58-0.03 0.86c-0.03 0.29-0.07 0.57-0.13 0.85c-0.06 0.28-0.14 0.56-0.23 0.83c-0.09 0.27-0.21 0.54-0.33 0.8c-0.11 0.22-0.24 0.44-0.38 0.64c-0.14 0.21-0.29 0.41-0.44 0.6c-0.16 0.19-0.33 0.37-0.51 0.55c-0.18 0.17-0.37 0.34-0.56 0.49c-0.19 0.15-0.39 0.29-0.59 0.42c-0.2 0.13-0.41 0.26-0.62 0.38c-0.21 0.12-0.42 0.23-0.64 0.34c-0.22 0.1-0.44 0.2-0.66 0.29l7.49 11.69h-4.89l-6.43-10.54h-4.2v10.57h-4.33v-26.45h7.42zm-0.29 3.64h-2.8v8.61h3c0.38 0.03 0.77 0.03 1.15 0c0.38-0.03 0.76-0.1 1.13-0.19c0.37-0.1 0.73-0.22 1.08-0.38c0.35-0.16 0.69-0.34 1.01-0.55c0.23-0.2 0.44-0.43 0.62-0.68c0.18-0.25 0.33-0.52 0.45-0.81c0.12-0.29 0.2-0.58 0.25-0.89c0.05-0.3 0.06-0.61 0.04-0.92c0.03-0.31 0.02-0.62-0.03-0.92c-0.05-0.31-0.14-0.6-0.27-0.89c-0.13-0.28-0.29-0.55-0.48-0.79c-0.19-0.24-0.42-0.46-0.67-0.64c-0.34-0.18-0.7-0.33-1.06-0.46c-0.36-0.13-0.74-0.23-1.11-0.31c-0.38-0.08-0.76-0.13-1.15-0.15c-0.39-0.02-0.77-0.02-1.16 0.01l0-0.03z" />
	<path id="Layer" fill-rule="evenodd" class="s0" d="m296 298.45l-2.59-7.34h-10.1l-2.58 7.34h-4.57l9.83-26.52h4.8l9.81 26.52h-4.6zm-3.71-11l-2.51-7.25c-0.1-0.31-0.23-0.75-0.41-1.31l-0.55-1.76l-0.45-1.51c-0.12 0.49-0.27 1-0.44 1.65c-0.17 0.65-0.34 1.18-0.51 1.71c-0.17 0.53-0.28 0.95-0.37 1.22l-2.53 7.25l7.77 0z" />
	<path id="Layer" fill-rule="evenodd" class="s0" d="m326.95 286.93c-0.06 0.64-0.16 1.28-0.3 1.9c-0.14 0.63-0.32 1.25-0.54 1.85c-0.22 0.6-0.48 1.2-0.77 1.77c-0.27 0.49-0.58 0.96-0.92 1.4c-0.34 0.44-0.72 0.85-1.13 1.24c-0.41 0.38-0.85 0.73-1.31 1.04c-0.46 0.31-0.95 0.59-1.46 0.82c-0.6 0.26-1.21 0.5-1.83 0.69c-0.62 0.2-1.26 0.36-1.9 0.49c-0.64 0.13-1.29 0.22-1.94 0.27c-0.65 0.06-1.3 0.07-1.96 0.06h-7.34v-26.46h8.13c0.61-0.01 1.22 0.01 1.82 0.06c0.61 0.06 1.21 0.15 1.8 0.27c0.6 0.12 1.18 0.28 1.76 0.48c0.58 0.19 1.14 0.42 1.69 0.67c0.48 0.23 0.95 0.5 1.39 0.81c0.44 0.3 0.86 0.64 1.25 1.01c0.39 0.37 0.75 0.77 1.08 1.19c0.33 0.42 0.63 0.87 0.89 1.34c0.29 0.55 0.54 1.12 0.75 1.7c0.21 0.58 0.39 1.18 0.53 1.78c0.14 0.6 0.23 1.22 0.29 1.83c0.06 0.62 0.08 1.24 0.05 1.86c0.02 0.64 0 1.29-0.05 1.93zm-4.48-1.81c0.02-0.46 0.01-0.91-0.02-1.37c-0.03-0.45-0.09-0.91-0.18-1.36c-0.08-0.45-0.19-0.89-0.33-1.33c-0.13-0.44-0.29-0.86-0.47-1.28c-0.15-0.33-0.34-0.65-0.54-0.96c-0.21-0.3-0.44-0.59-0.69-0.85c-0.25-0.27-0.53-0.51-0.83-0.73c-0.3-0.22-0.61-0.41-0.94-0.58c-0.38-0.18-0.76-0.33-1.16-0.46c-0.4-0.13-0.8-0.24-1.21-0.32c-0.41-0.08-0.82-0.14-1.24-0.18c-0.42-0.04-0.83-0.05-1.25-0.03h-3.7v19.17h3.07c3.18 0 5.56-0.82 7.13-2.44c1.57-1.62 2.31-4.07 2.31-7.29l0.04 0.01z" />
	<path id="Layer" class="s0" d="m345.37 275.34c-0.29-0.01-0.58 0-0.86 0.03c-0.29 0.02-0.57 0.06-0.86 0.12c-0.28 0.06-0.56 0.13-0.84 0.21c-0.28 0.09-0.55 0.19-0.81 0.3c-0.25 0.11-0.48 0.24-0.72 0.38c-0.23 0.14-0.45 0.3-0.66 0.47c-0.21 0.17-0.41 0.35-0.6 0.54c-0.19 0.19-0.37 0.4-0.54 0.61c-0.18 0.23-0.35 0.47-0.51 0.72c-0.16 0.25-0.3 0.51-0.43 0.77c-0.13 0.26-0.25 0.53-0.36 0.81c-0.11 0.27-0.2 0.55-0.28 0.84c-0.09 0.34-0.18 0.67-0.25 1.02c-0.07 0.34-0.13 0.68-0.17 1.03c-0.05 0.35-0.08 0.69-0.1 1.04c-0.02 0.35-0.03 0.7-0.02 1.04c-0.01 0.45 0 0.89 0.03 1.34c0.03 0.45 0.08 0.89 0.16 1.33c0.07 0.44 0.17 0.88 0.28 1.31c0.11 0.43 0.25 0.86 0.4 1.28c0.12 0.34 0.28 0.68 0.45 1c0.18 0.32 0.38 0.62 0.6 0.91c0.22 0.29 0.47 0.56 0.74 0.81c0.27 0.25 0.55 0.48 0.85 0.68c0.33 0.21 0.68 0.39 1.04 0.54c0.36 0.15 0.73 0.28 1.11 0.38c0.38 0.1 0.76 0.17 1.15 0.21c0.39 0.04 0.78 0.06 1.17 0.04c0.28 0 0.55 0 0.83-0.02c0.28-0.01 0.55-0.03 0.83-0.06c0.27-0.03 0.55-0.06 0.82-0.1c0.27-0.04 0.54-0.09 0.82-0.14c0.28-0.06 0.56-0.12 0.83-0.19c0.28-0.07 0.55-0.14 0.83-0.21c0.27-0.07 0.55-0.15 0.82-0.23c0.27-0.08 0.54-0.17 0.81-0.26v3.69c-0.26 0.1-0.53 0.2-0.8 0.29c-0.27 0.09-0.54 0.17-0.81 0.25c-0.27 0.08-0.55 0.15-0.82 0.21c-0.28 0.06-0.55 0.12-0.83 0.17c-0.31 0.05-0.63 0.1-0.94 0.13c-0.31 0.04-0.63 0.07-0.95 0.09c-0.32 0.02-0.63 0.04-0.95 0.05c-0.32 0.01-0.63 0.01-0.95 0.01c-0.59 0.02-1.17 0-1.76-0.06c-0.58-0.06-1.16-0.16-1.73-0.3c-0.57-0.14-1.13-0.32-1.67-0.54c-0.54-0.22-1.07-0.48-1.58-0.77c-0.45-0.28-0.87-0.59-1.26-0.93c-0.4-0.34-0.77-0.72-1.11-1.12c-0.34-0.4-0.65-0.83-0.92-1.28c-0.27-0.45-0.51-0.92-0.71-1.4c-0.23-0.57-0.42-1.15-0.59-1.73c-0.17-0.59-0.31-1.18-0.42-1.78c-0.11-0.6-0.19-1.21-0.24-1.82c-0.05-0.61-0.07-1.22-0.05-1.83c-0.01-0.46 0.01-0.93 0.04-1.39c0.03-0.46 0.08-0.92 0.15-1.38c0.07-0.46 0.16-0.91 0.26-1.37c0.11-0.45 0.23-0.9 0.37-1.34c0.12-0.4 0.27-0.78 0.43-1.16c0.16-0.38 0.35-0.75 0.55-1.11c0.2-0.36 0.42-0.71 0.66-1.05c0.24-0.34 0.5-0.66 0.77-0.98c0.27-0.3 0.55-0.59 0.86-0.87c0.3-0.27 0.62-0.53 0.95-0.76c0.33-0.24 0.67-0.45 1.03-0.65c0.36-0.2 0.72-0.37 1.1-0.53c0.42-0.17 0.86-0.32 1.3-0.45c0.44-0.13 0.88-0.24 1.33-0.32c0.45-0.08 0.9-0.15 1.36-0.18c0.46-0.04 0.91-0.05 1.37-0.05c0.33 0 0.66 0.01 0.98 0.03c0.33 0.02 0.65 0.05 0.98 0.09c0.33 0.04 0.65 0.09 0.97 0.14c0.32 0.06 0.64 0.12 0.96 0.2c0.31 0.07 0.61 0.15 0.92 0.24c0.3 0.09 0.61 0.18 0.9 0.29c0.3 0.1 0.6 0.22 0.89 0.33c0.29 0.12 0.58 0.25 0.87 0.38l-1.52 3.58c-0.23-0.11-0.47-0.21-0.71-0.31c-0.24-0.1-0.48-0.2-0.72-0.29c-0.24-0.09-0.48-0.18-0.72-0.27c-0.24-0.08-0.49-0.17-0.73-0.24c-0.25-0.08-0.5-0.15-0.75-0.21c-0.25-0.06-0.51-0.11-0.77-0.15c-0.26-0.04-0.52-0.07-0.78-0.09c-0.26-0.02-0.52-0.03-0.78-0.03h0z" />
	<path id="Layer" class="s0" d="m366.53 284.08l6.27-12.08h4.68l-8.78 16.16v10.26h-4.34v-10.1l-8.78-16.32h4.71l6.24 12.08z" />
	<path id="Layer" fill-rule="evenodd" class="s0" d="m401.19 272c3.41 0 5.9 0.7 7.47 2.1c0.4 0.38 0.75 0.79 1.06 1.25c0.31 0.45 0.56 0.94 0.76 1.45c0.2 0.51 0.35 1.04 0.43 1.58c0.09 0.54 0.11 1.09 0.08 1.63c0 0.27-0.01 0.55-0.03 0.82c-0.02 0.27-0.05 0.55-0.1 0.82c-0.04 0.27-0.1 0.54-0.17 0.81c-0.07 0.27-0.15 0.53-0.24 0.79c-0.09 0.26-0.19 0.51-0.31 0.76c-0.12 0.25-0.25 0.49-0.4 0.72c-0.15 0.23-0.31 0.45-0.48 0.66c-0.17 0.21-0.36 0.41-0.55 0.6c-0.23 0.21-0.46 0.41-0.71 0.6c-0.25 0.19-0.51 0.36-0.78 0.52c-0.27 0.16-0.54 0.3-0.83 0.43c-0.28 0.13-0.58 0.24-0.87 0.33c-0.39 0.12-0.79 0.23-1.19 0.32c-0.4 0.09-0.81 0.17-1.21 0.22c-0.41 0.06-0.82 0.1-1.23 0.12c-0.41 0.02-0.82 0.03-1.23 0.02h-2.82v9.88h-4.33v-26.43h7.67zm-0.28 3.62h-3.06v9.28h2.37c0.29 0.01 0.58 0 0.88-0.01c0.29-0.02 0.58-0.04 0.87-0.08c0.29-0.04 0.58-0.09 0.86-0.15c0.29-0.06 0.57-0.14 0.85-0.22c0.21-0.07 0.42-0.15 0.62-0.25c0.2-0.1 0.39-0.21 0.58-0.34c0.18-0.13 0.36-0.27 0.52-0.43c0.16-0.16 0.31-0.33 0.44-0.51c0.13-0.2 0.25-0.42 0.34-0.64c0.1-0.22 0.18-0.45 0.24-0.68c0.06-0.23 0.11-0.47 0.13-0.71c0.03-0.24 0.03-0.48 0.02-0.72c0.02-0.32 0.01-0.64-0.04-0.95c-0.05-0.31-0.13-0.62-0.25-0.92c-0.12-0.29-0.27-0.57-0.46-0.83c-0.18-0.26-0.4-0.5-0.63-0.71c-0.31-0.21-0.64-0.39-0.99-0.54c-0.34-0.15-0.7-0.27-1.06-0.37c-0.36-0.09-0.74-0.15-1.11-0.19c-0.37-0.03-0.75-0.03-1.13 0l0-0.03z" />
	<path id="Layer" fill-rule="evenodd" class="s0" d="m425.17 272c0.48-0.01 0.96 0 1.43 0.02c0.48 0.03 0.95 0.08 1.42 0.15c0.47 0.07 0.94 0.16 1.41 0.27c0.46 0.11 0.92 0.24 1.38 0.39c0.34 0.11 0.66 0.26 0.98 0.42c0.31 0.17 0.61 0.36 0.9 0.58c0.28 0.22 0.55 0.45 0.79 0.71c0.24 0.26 0.47 0.54 0.67 0.83c0.19 0.32 0.36 0.66 0.5 1c0.14 0.35 0.26 0.7 0.35 1.07c0.09 0.36 0.16 0.73 0.2 1.11c0.04 0.37 0.05 0.75 0.04 1.12c0.01 0.29 0 0.58-0.03 0.86c-0.03 0.29-0.07 0.57-0.13 0.85c-0.06 0.28-0.14 0.56-0.23 0.83c-0.09 0.27-0.2 0.54-0.33 0.8c-0.11 0.22-0.24 0.44-0.38 0.64c-0.14 0.21-0.29 0.41-0.45 0.6c-0.16 0.19-0.33 0.37-0.51 0.55c-0.18 0.17-0.37 0.34-0.57 0.49c-0.19 0.15-0.39 0.29-0.59 0.42c-0.2 0.13-0.41 0.26-0.62 0.38c-0.21 0.12-0.42 0.23-0.64 0.34c-0.22 0.1-0.44 0.2-0.66 0.29l7.5 11.69h-4.9l-6.4-10.57h-4.22v10.57h-4.34v-26.42h7.43zm-0.29 3.64h-2.8v8.61h3c0.38 0.03 0.76 0.03 1.15 0c0.38-0.03 0.76-0.1 1.13-0.19c0.37-0.1 0.73-0.22 1.08-0.38c0.35-0.16 0.68-0.34 1-0.55c0.23-0.2 0.44-0.43 0.62-0.68c0.18-0.25 0.33-0.52 0.45-0.81c0.12-0.29 0.2-0.58 0.25-0.89c0.05-0.3 0.06-0.61 0.04-0.92c0.03-0.31 0.02-0.62-0.03-0.93c-0.05-0.31-0.14-0.6-0.27-0.89c-0.13-0.28-0.29-0.55-0.48-0.79c-0.19-0.24-0.42-0.46-0.67-0.64c-0.34-0.18-0.7-0.33-1.06-0.46c-0.36-0.13-0.73-0.23-1.11-0.31c-0.38-0.08-0.76-0.13-1.14-0.15c-0.38-0.02-0.77-0.02-1.15 0.01l0-0.03z" />
	<path id="Layer" fill-rule="evenodd" class="s0" d="m459.22 298.45l-2.58-7.34h-10.1l-2.54 7.34h-4.58l9.83-26.52h4.75l9.81 26.52h-4.59zm-3.7-11l-2.52-7.29l-0.42-1.31c-0.18-0.57-0.36-1.15-0.54-1.76l-0.45-1.51c-0.12 0.49-0.27 1.04-0.45 1.65c-0.17 0.61-0.34 1.18-0.5 1.71c-0.16 0.53-0.29 0.95-0.37 1.22l-2.53 7.25l7.78 0.04z" />
	<path id="Layer" class="s0" d="m500 272l-6.9 26.42h-4.7l-4.4-15.8c-0.11-0.38-0.23-0.84-0.36-1.36c-0.13-0.52-0.26-1.07-0.39-1.62c-0.13-0.55-0.24-1.06-0.33-1.53c-0.09-0.47-0.15-0.82-0.19-1.09c-0.01 0.09-0.02 0.18-0.03 0.27c-0.01 0.09-0.02 0.18-0.04 0.27c-0.01 0.09-0.03 0.18-0.04 0.27c-0.02 0.09-0.03 0.18-0.05 0.27c-0.08 0.45-0.18 1-0.3 1.5c-0.12 0.5-0.23 1.09-0.37 1.63c-0.14 0.54-0.25 1-0.36 1.42l-4.33 15.79h-4.74l-6.87-26.45h4.4l3.81 15.49c0.12 0.49 0.25 1 0.37 1.6c0.12 0.6 0.25 1.14 0.36 1.72c0.11 0.58 0.22 1.14 0.32 1.69c0.1 0.55 0.18 1.05 0.23 1.49c0.07-0.46 0.14-1 0.24-1.53c0.1-0.53 0.2-1.13 0.32-1.71c0.12-0.58 0.23-1.15 0.36-1.69c0.13-0.54 0.25-1 0.39-1.46l4.28-15.6h4.24l4.39 15.65c0.14 0.45 0.27 0.95 0.39 1.5c0.13 0.55 0.25 1.12 0.37 1.7c0.12 0.58 0.23 1.14 0.33 1.68c0.1 0.54 0.17 1 0.23 1.46c0.09-0.59 0.2-1.26 0.33-2c0.13-0.74 0.28-1.53 0.45-2.31c0.17-0.78 0.34-1.51 0.51-2.17l3.74-15.51h4.34z" />
	<path id="Layer" class="s0" d="m527.29 298.45h-5.29l-13-21.09h-0.17c0 0.71 0.1 1.47 0.14 2.27c0.04 0.8 0.08 1.62 0.11 2.47c0.03 0.85 0.06 1.69 0.08 2.55v13.8h-3.94v-26.45h5.29l12.95 21h0.13c0-0.61-0.06-1.32-0.09-2.11c-0.03-0.79-0.07-1.62-0.1-2.47c-0.03-0.85 0-1.67-0.06-2.46v-13.96h3.95l0 26.45z" />
	<path id="Layer" class="s0" d="m550.67 298.45h-15v-26.45h15v3.65h-10.67v7.18h10v3.63h-10v8.29h10.63l0.04 3.7z" />
	<path id="Layer" class="s0" d="m568.5 284.1h9.84v13.26c-0.35 0.12-0.7 0.23-1.06 0.33c-0.35 0.1-0.71 0.2-1.07 0.29c-0.36 0.09-0.72 0.17-1.08 0.25c-0.36 0.08-0.72 0.14-1.09 0.21c-0.41 0.07-0.83 0.12-1.24 0.17c-0.42 0.05-0.83 0.09-1.25 0.12c-0.42 0.03-0.83 0.05-1.25 0.07c-0.42 0.01-0.84 0.02-1.25 0.02c-0.59 0.02-1.18 0-1.77-0.06c-0.59-0.06-1.17-0.16-1.74-0.29c-0.57-0.13-1.14-0.31-1.69-0.52c-0.55-0.21-1.09-0.45-1.61-0.74c-0.46-0.26-0.9-0.56-1.32-0.9c-0.41-0.33-0.8-0.7-1.16-1.09c-0.36-0.39-0.69-0.81-0.98-1.25c-0.29-0.44-0.55-0.91-0.77-1.39c-0.25-0.58-0.48-1.17-0.66-1.77c-0.19-0.6-0.34-1.21-0.46-1.83c-0.12-0.62-0.21-1.24-0.26-1.87c-0.05-0.63-0.07-1.26-0.05-1.89c-0.02-0.62 0.01-1.24 0.07-1.86c0.06-0.62 0.16-1.23 0.29-1.83c0.13-0.6 0.31-1.2 0.51-1.78c0.21-0.58 0.45-1.15 0.73-1.71c0.26-0.5 0.56-0.98 0.89-1.43c0.33-0.45 0.7-0.88 1.09-1.28c0.4-0.4 0.82-0.77 1.27-1.1c0.45-0.33 0.93-0.63 1.42-0.9c0.57-0.29 1.16-0.55 1.77-0.77c0.6-0.22 1.22-0.4 1.85-0.54c0.63-0.14 1.26-0.24 1.9-0.31c0.64-0.06 1.28-0.08 1.93-0.06c0.35 0 0.7 0.01 1.05 0.03c0.35 0.02 0.7 0.05 1.04 0.08c0.35 0.04 0.69 0.08 1.04 0.14c0.34 0.06 0.69 0.12 1.03 0.19c0.32 0.07 0.63 0.14 0.94 0.22c0.31 0.08 0.62 0.17 0.93 0.27c0.31 0.1 0.61 0.2 0.92 0.31c0.3 0.11 0.6 0.23 0.9 0.35l-1.53 3.58c-0.24-0.11-0.49-0.21-0.73-0.31c-0.25-0.1-0.49-0.19-0.75-0.28c-0.25-0.09-0.5-0.17-0.76-0.25c-0.25-0.08-0.51-0.15-0.77-0.21c-0.28-0.07-0.56-0.13-0.85-0.19c-0.28-0.05-0.57-0.1-0.86-0.13c-0.29-0.04-0.58-0.06-0.87-0.08c-0.29-0.02-0.58-0.03-0.87-0.03c-0.43-0.01-0.85 0.01-1.27 0.05c-0.42 0.05-0.84 0.12-1.26 0.23c-0.41 0.1-0.82 0.24-1.21 0.39c-0.39 0.16-0.78 0.34-1.15 0.56c-0.34 0.2-0.66 0.43-0.97 0.68c-0.31 0.25-0.59 0.52-0.86 0.81c-0.27 0.29-0.51 0.6-0.73 0.93c-0.22 0.33-0.42 0.67-0.59 1.03c-0.19 0.41-0.36 0.83-0.5 1.26c-0.14 0.43-0.26 0.87-0.35 1.31c-0.09 0.44-0.16 0.89-0.2 1.34c-0.04 0.45-0.05 0.9-0.04 1.35c-0.01 0.44 0 0.88 0.04 1.32c0.03 0.44 0.09 0.87 0.16 1.31c0.07 0.43 0.17 0.86 0.28 1.29c0.11 0.42 0.25 0.84 0.4 1.25c0.13 0.35 0.29 0.69 0.48 1.02c0.19 0.33 0.4 0.64 0.63 0.93c0.23 0.29 0.49 0.57 0.77 0.82c0.28 0.25 0.57 0.48 0.89 0.69c0.37 0.22 0.75 0.41 1.14 0.58c0.39 0.16 0.8 0.3 1.21 0.4c0.41 0.1 0.83 0.18 1.26 0.22c0.42 0.04 0.85 0.06 1.28 0.04c0.21 0 0.42 0 0.64 0c0.21-0.01 0.42-0.01 0.64-0.03c0.21-0.01 0.42-0.03 0.63-0.05c0.21-0.02 0.42-0.05 0.63-0.08c0.7-0.11 1.35-0.23 1.94-0.36v-6.8h-5.56v-3.72z" />
	<path id="Layer" fill-rule="evenodd" class="s0" d="m609.62 285.21c0 0.47-0.01 0.94-0.04 1.41c-0.03 0.47-0.08 0.93-0.14 1.4c-0.06 0.46-0.15 0.93-0.24 1.38c-0.1 0.46-0.21 0.91-0.35 1.36c-0.12 0.39-0.25 0.78-0.41 1.16c-0.16 0.38-0.33 0.75-0.52 1.11c-0.19 0.36-0.41 0.71-0.64 1.05c-0.23 0.34-0.48 0.67-0.74 0.98c-0.26 0.3-0.54 0.59-0.83 0.86c-0.29 0.27-0.6 0.52-0.93 0.76c-0.32 0.23-0.66 0.45-1.01 0.64c-0.35 0.19-0.71 0.36-1.08 0.51c-0.43 0.17-0.87 0.32-1.31 0.45c-0.44 0.13-0.89 0.24-1.35 0.32c-0.45 0.08-0.91 0.15-1.37 0.18c-0.46 0.04-0.92 0.05-1.39 0.05c-0.47 0.01-0.94-0.01-1.4-0.04c-0.47-0.04-0.93-0.1-1.39-0.18c-0.46-0.08-0.92-0.19-1.37-0.32c-0.45-0.13-0.89-0.28-1.33-0.45c-0.37-0.15-0.73-0.32-1.08-0.51c-0.35-0.19-0.69-0.41-1.01-0.64c-0.32-0.23-0.64-0.49-0.93-0.76c-0.29-0.27-0.57-0.56-0.83-0.86c-0.26-0.32-0.51-0.64-0.74-0.98c-0.23-0.34-0.44-0.69-0.63-1.06c-0.19-0.36-0.36-0.74-0.52-1.12c-0.15-0.38-0.29-0.77-0.4-1.16c-0.13-0.45-0.24-0.91-0.34-1.37c-0.1-0.46-0.18-0.93-0.24-1.39c-0.06-0.47-0.11-0.94-0.14-1.41c-0.03-0.47-0.04-0.94-0.03-1.41c-0.01-0.61 0.01-1.22 0.06-1.83c0.05-0.61 0.13-1.21 0.24-1.81c0.11-0.6 0.26-1.19 0.43-1.77c0.17-0.58 0.38-1.16 0.61-1.72c0.21-0.49 0.45-0.96 0.73-1.41c0.28-0.45 0.6-0.88 0.94-1.28c0.35-0.4 0.73-0.77 1.13-1.12c0.41-0.34 0.84-0.65 1.29-0.93c0.53-0.3 1.08-0.56 1.64-0.78c0.57-0.22 1.15-0.41 1.74-0.55c0.59-0.14 1.19-0.24 1.8-0.3c0.61-0.06 1.21-0.08 1.82-0.05c0.6-0.02 1.19 0 1.78 0.06c0.59 0.06 1.18 0.16 1.76 0.3c0.58 0.14 1.15 0.32 1.7 0.54c0.55 0.22 1.09 0.48 1.61 0.77c0.45 0.28 0.88 0.59 1.28 0.93c0.4 0.34 0.78 0.72 1.13 1.12c0.35 0.4 0.66 0.83 0.94 1.28c0.28 0.45 0.53 0.92 0.74 1.4c0.24 0.57 0.44 1.14 0.62 1.73c0.18 0.59 0.32 1.18 0.43 1.79c0.11 0.6 0.19 1.21 0.24 1.82c0.05 0.61 0.07 1.22 0.05 1.84zm-20.17 0c-0.01 0.45 0 0.9 0.03 1.34c0.03 0.45 0.08 0.89 0.15 1.33c0.07 0.44 0.16 0.88 0.27 1.32c0.11 0.43 0.24 0.86 0.39 1.29c0.12 0.34 0.26 0.68 0.43 1c0.17 0.32 0.36 0.63 0.58 0.92c0.22 0.29 0.45 0.56 0.71 0.82c0.26 0.25 0.54 0.49 0.83 0.7c0.67 0.39 1.39 0.69 2.14 0.89c0.75 0.2 1.52 0.31 2.3 0.31c0.78 0 1.55-0.1 2.3-0.31c0.75-0.2 1.47-0.5 2.14-0.89c0.29-0.21 0.57-0.44 0.83-0.7c0.26-0.25 0.5-0.53 0.71-0.82c0.21-0.29 0.41-0.6 0.57-0.92c0.17-0.32 0.31-0.65 0.42-1c0.14-0.42 0.27-0.85 0.37-1.29c0.11-0.43 0.19-0.87 0.26-1.32c0.07-0.44 0.12-0.89 0.15-1.33c0.03-0.45 0.04-0.89 0.03-1.34c0.04-0.63 0.02-1.27-0.04-1.9c-0.06-0.63-0.17-1.26-0.33-1.87c-0.16-0.62-0.36-1.22-0.61-1.8c-0.25-0.58-0.54-1.15-0.87-1.69c-1.23-1.76-3.19-2.63-5.89-2.63c-0.39-0.02-0.78 0-1.17 0.04c-0.39 0.04-0.77 0.12-1.15 0.22c-0.38 0.1-0.75 0.23-1.1 0.39c-0.36 0.16-0.7 0.34-1.03 0.55c-0.3 0.21-0.57 0.44-0.83 0.69c-0.26 0.25-0.5 0.52-0.72 0.81c-0.22 0.29-0.41 0.59-0.58 0.91c-0.17 0.32-0.32 0.65-0.44 0.99c-0.15 0.42-0.28 0.85-0.39 1.29c-0.11 0.44-0.2 0.88-0.27 1.32c-0.07 0.44-0.12 0.89-0.15 1.34c-0.03 0.45-0.04 0.9-0.03 1.35z" />
	<path id="Layer" class="s0" d="m673.21 172.63h-21.55l-55.27-88v88h-21.55v-124h21.55l55.44 88.32v-88.33h21.38l0 124.01z" />
</svg>