<svg id="Warstwa_1" data-name="Warstwa 1" xmlns="http://www.w3.org/2000/svg" viewBox="0 0 1000 1000"><defs><style>.cls-1{fill:#efc295;}</style></defs><path class="cls-1" d="M87.82,353.88h23.43v99.69h56v21.84H87.82Z"/><path class="cls-1" d="M201.43,353.88h23.43V475.41H201.43Z"/><path class="cls-1" d="M267.13,353.88h39.45q19.91,0,30.3,8.45t10.39,23.78a27.46,27.46,0,0,1-3.17,13.39,22.06,22.06,0,0,1-9.86,9.16q13,2.29,19.29,9.95t6.25,20.87q0,17.08-11.45,26.51T317,475.41H267.13ZM305,402q18,0,18-13.22t-18-13.21H290.56V402Zm9.69,51.78q20.6,0,20.6-15.68,0-15.31-20.6-15.32H290.56v31Z"/><path class="cls-1" d="M394,353.88h39.81q22.55,0,35,10.74t12.42,30.12a39.18,39.18,0,0,1-4.76,19.55A37.05,37.05,0,0,1,462.82,428l22.54,47.38H460l-18-40.68a89.91,89.91,0,0,1-9.86.52H417.38v40.16H394Zm37.69,59.89q25.19,0,25.19-19.2t-25.19-19.2H417.38v38.4Z"/><polygon class="cls-1" points="570.26 399.24 570.34 399.24 571.14 397.56 571.95 399.24 572.02 399.24 610.65 475.42 634.91 475.42 572.02 351.41 570.26 351.41 507.38 475.42 531.63 475.42 570.26 399.24"/><path class="cls-1" d="M554.4,439.38a16.8,16.8,0,1,0,33.59,0l-16.77-.76Z"/><polygon class="cls-1" points="844.94 400.41 845.01 400.41 845.82 398.73 846.63 400.41 846.7 400.41 885.33 476.59 909.58 476.59 846.7 352.59 844.94 352.59 782.06 476.59 806.31 476.59 844.94 400.41"/><path class="cls-1" d="M828.31,439.59a17.57,17.57,0,1,0,35.12,0l-17.53-.8Z"/><rect class="cls-1" x="507.21" y="303.35" width="402" height="19.37"/><path class="cls-1" d="M106.84,557.05l-2.59-7.34H94.15l-2.58,7.34H87l9.83-26.52h4.8l9.81,26.52Zm-3.71-11-2.51-7.25c-.09-.31-.23-.75-.41-1.31s-.36-1.15-.54-1.76-.34-1.1-.46-1.51c-.12.49-.26,1-.44,1.65s-.34,1.18-.51,1.72-.28.94-.37,1.21L95.37,546Z"/><path class="cls-1" d="M138.45,557.05h-5.33L120.19,536H120c0,.71.1,1.46.14,2.26s.08,1.62.11,2.47.06,1.69.08,2.55v13.8h-3.94V530.64h5.29l12.92,20.93h.13c0-.61-.06-1.31-.09-2.11s-.07-1.62-.1-2.47-.05-1.67-.06-2.46V530.64h3.95Z"/><path class="cls-1" d="M168.91,557.05h-5.33L150.65,536h-.17c.05.71.1,1.46.14,2.26s.08,1.62.11,2.47.05,1.69.08,2.55v13.8h-3.94V530.64h5.29l12.92,20.93h.13c0-.61-.06-1.31-.09-2.11s-.07-1.62-.1-2.47-.05-1.67-.07-2.46V530.64h4Z"/><path class="cls-1" d="M193.7,557.05l-2.59-7.34H181l-2.58,7.34h-4.57l9.83-26.52h4.8l9.81,26.52ZM190,546l-2.51-7.25c-.1-.31-.23-.75-.41-1.31s-.37-1.15-.55-1.76l-.45-1.51c-.12.49-.27,1-.44,1.65s-.34,1.18-.51,1.72-.28.94-.37,1.21L182.22,546Z"/><path class="cls-1" d="M245.6,530.64l-6.9,26.41H234l-4.41-15.83-.36-1.36c-.13-.53-.26-1.06-.39-1.62s-.23-1.06-.32-1.53-.15-.82-.19-1.09c0,.27-.08.63-.16,1.09l-.3,1.5c-.12.55-.24,1.09-.37,1.63s-.25,1-.36,1.42l-4.34,15.79H218l-6.87-26.41h4.36l3.81,15.48c.12.49.24,1,.37,1.6s.25,1.14.36,1.72.22,1.14.32,1.69.17,1,.23,1.49c.06-.46.14-1,.24-1.52s.2-1.14.31-1.72.24-1.15.36-1.69.26-1,.39-1.46l4.28-15.59h4.25l4.39,15.64q.19.68.39,1.5c.13.55.25,1.12.37,1.7s.23,1.14.32,1.68.18,1,.24,1.46c.08-.59.19-1.26.32-2s.29-1.53.46-2.31.33-1.51.5-2.17l3.8-15.48Z"/><path class="cls-1" d="M250.82,557.05V548l-1.59.94-1.63-2.8,3.22-2V530.64h4.33v10.89l3.91-2.35,1.68,2.86-5.59,3.32v8h11.22v3.69Z"/><path class="cls-1" d="M295.86,543.81a19,19,0,0,1-.77,5.55,11.84,11.84,0,0,1-2.31,4.31,10,10,0,0,1-3.84,2.77,13.91,13.91,0,0,1-5.42,1,14.23,14.23,0,0,1-5.5-1,9.88,9.88,0,0,1-3.85-2.77,11.75,11.75,0,0,1-2.28-4.32,19.42,19.42,0,0,1-.75-5.58,17.65,17.65,0,0,1,1.34-7.13,10.24,10.24,0,0,1,4.1-4.73,13.13,13.13,0,0,1,7-1.69,12.85,12.85,0,0,1,6.85,1.68,10.39,10.39,0,0,1,4.09,4.73A17.49,17.49,0,0,1,295.86,543.81Zm-20.17,0a15.24,15.24,0,0,0,.83,5.28,7.05,7.05,0,0,0,2.56,3.43,8.8,8.8,0,0,0,8.87,0,6.83,6.83,0,0,0,2.53-3.43,15.5,15.5,0,0,0,.81-5.28,12.51,12.51,0,0,0-1.85-7.27q-1.85-2.64-5.89-2.64a7.69,7.69,0,0,0-4.45,1.21,7.06,7.06,0,0,0-2.58,3.41A15.18,15.18,0,0,0,275.69,543.81Z"/><path class="cls-1" d="M324.45,543.59a15.15,15.15,0,0,1-1.66,7.45,10.62,10.62,0,0,1-4.82,4.5,17.54,17.54,0,0,1-7.63,1.51H303V530.64h8.13a15.87,15.87,0,0,1,7.08,1.47,10.53,10.53,0,0,1,4.61,4.35A14.38,14.38,0,0,1,324.45,543.59Zm-4.53.13a12.22,12.22,0,0,0-1-5.34,6.59,6.59,0,0,0-3-3.12,10.64,10.64,0,0,0-4.85-1h-3.71v19.17h3.08c3.18,0,5.55-.82,7.13-2.44S319.92,546.93,319.92,543.72Z"/><path class="cls-1" d="M348,557.05l-2.58-7.34h-10.1l-2.58,7.34h-4.57L338,530.53h4.8l9.81,26.52Zm-3.7-11-2.51-7.25-.42-1.31c-.18-.57-.36-1.15-.54-1.76l-.45-1.51c-.12.49-.27,1-.44,1.65l-.51,1.72c-.16.53-.28.94-.37,1.21L336.5,546Z"/><path class="cls-1" d="M365,530.64a16.48,16.48,0,0,1,5.65.83,6.58,6.58,0,0,1,3.32,2.54,7.82,7.82,0,0,1,1.1,4.3,7.19,7.19,0,0,1-.73,3.34,6.8,6.8,0,0,1-1.89,2.28,10.48,10.48,0,0,1-2.51,1.43l7.49,11.69h-4.89l-6.4-10.57h-4.23v10.57h-4.33V530.64Zm-.29,3.63h-2.8v8.61h3a6.86,6.86,0,0,0,4.37-1.12,4,4,0,0,0,1.36-3.3,3.61,3.61,0,0,0-1.45-3.24A8.36,8.36,0,0,0,364.68,534.27Z"/><path class="cls-1" d="M397.62,557.05h-15V530.64h15v3.64H387v7.18H397v3.63H387v8.29h10.62Z"/><path class="cls-1" d="M424.93,557.05h-5l-8.2-12-2.61,2.11v9.87h-4.33V530.64h4.33v12.62c.53-.65,1.07-1.29,1.61-1.94s1.09-1.3,1.63-2l7.42-8.72h4.92l-9.87,11.58Z"/><path class="cls-1" d="M110.61,601.45h-5l-8.2-12-2.61,2.11v9.87H90.47V575H94.8v12.62c.53-.65,1.07-1.29,1.61-1.94s1.09-1.3,1.63-2l7.42-8.72h4.92l-9.87,11.58Z"/><path class="cls-1" d="M131.93,601.45l-2.58-7.34h-10.1l-2.59,7.34h-4.57l9.83-26.52h4.81l9.81,26.52Zm-3.7-11-2.52-7.25c-.09-.31-.23-.75-.41-1.31s-.36-1.15-.54-1.76l-.45-1.51q-.18.74-.45,1.65c-.17.61-.34,1.18-.5,1.72s-.29.94-.37,1.21l-2.53,7.25Z"/><path class="cls-1" d="M163.54,601.45h-5.33l-12.93-21.09h-.16c0,.72.09,1.47.13,2.27s.08,1.63.11,2.47.06,1.69.08,2.54v13.81H141.5V575h5.3L159.71,596h.13c0-.61-.05-1.32-.09-2.11s-.07-1.62-.1-2.47-.05-1.67-.06-2.46V575h3.95Z"/><path class="cls-1" d="M183.22,578.34a8,8,0,0,0-3.39.69,6.94,6.94,0,0,0-2.52,2,9.17,9.17,0,0,0-1.57,3.14,16.31,16.31,0,0,0,.32,9.39,7,7,0,0,0,2.64,3.4,7.86,7.86,0,0,0,4.46,1.18,16.17,16.17,0,0,0,3.29-.32,28.44,28.44,0,0,0,3.29-.89v3.69a16.81,16.81,0,0,1-3.25.92,22.43,22.43,0,0,1-3.8.29,12.42,12.42,0,0,1-6.73-1.68,10.19,10.19,0,0,1-4-4.73,18.12,18.12,0,0,1-1.3-7.16,17.27,17.27,0,0,1,.82-5.48,12.16,12.16,0,0,1,2.42-4.3,10.84,10.84,0,0,1,3.93-2.81,13.61,13.61,0,0,1,5.37-1,17,17,0,0,1,3.9.45,17.48,17.48,0,0,1,3.57,1.24l-1.51,3.58a26,26,0,0,0-2.88-1.11A10.19,10.19,0,0,0,183.22,578.34Z"/><path class="cls-1" d="M211.85,601.45h-15V575h15v3.64H201.23v7.18h10v3.63h-10v8.29h10.62Z"/><path class="cls-1" d="M219,601.45V575h4.34v22.72h11.22v3.69Z"/><path class="cls-1" d="M257,601.45l-2.59-7.34H244.3l-2.59,7.34h-4.57L247,574.93h4.81l9.8,26.52Zm-3.71-11-2.51-7.25c-.09-.31-.23-.75-.41-1.31s-.36-1.15-.54-1.76-.34-1.1-.46-1.51c-.12.49-.26,1-.44,1.65s-.34,1.18-.5,1.72-.29.94-.37,1.21l-2.53,7.25Z"/><path class="cls-1" d="M274,575a15.93,15.93,0,0,1,5.64.84,6.49,6.49,0,0,1,3.33,2.53,7.82,7.82,0,0,1,1.09,4.3,7.16,7.16,0,0,1-.72,3.34,6.83,6.83,0,0,1-1.9,2.28,10.29,10.29,0,0,1-2.51,1.43l7.5,11.69h-4.9l-6.39-10.57h-4.23v10.57h-4.34V575Zm-.29,3.63h-2.8v8.61h3a6.82,6.82,0,0,0,4.36-1.12,4,4,0,0,0,1.36-3.3,3.59,3.59,0,0,0-1.45-3.24A8.35,8.35,0,0,0,273.69,578.67Z"/><path class="cls-1" d="M291.66,601.45V575H296v26.41Z"/><path class="cls-1" d="M320.8,601.45l-2.58-7.34h-10.1l-2.58,7.34H301l9.82-26.52h4.81l9.81,26.52Zm-3.7-11-2.51-7.25-.42-1.31c-.18-.57-.36-1.15-.54-1.76l-.45-1.51c-.12.49-.27,1-.44,1.65l-.51,1.72-.37,1.21-2.53,7.25Z"/><path class="cls-1" d="M348.89,575a16,16,0,0,1,5.65.84,6.46,6.46,0,0,1,3.32,2.53,7.82,7.82,0,0,1,1.1,4.3,7.16,7.16,0,0,1-.73,3.34,6.8,6.8,0,0,1-1.89,2.28,10.48,10.48,0,0,1-2.51,1.43l7.49,11.69h-4.89L350,590.88H345.8v10.57h-4.33V575Zm-.29,3.63h-2.8v8.61h3a6.86,6.86,0,0,0,4.37-1.12,4,4,0,0,0,1.36-3.3,3.61,3.61,0,0,0-1.45-3.24A8.36,8.36,0,0,0,348.6,578.67Z"/><path class="cls-1" d="M383,601.45l-2.59-7.34h-10.1l-2.58,7.34h-4.57l9.83-26.52h4.8l9.81,26.52Zm-3.71-11-2.51-7.25c-.1-.31-.23-.75-.41-1.31l-.55-1.76-.45-1.51c-.12.49-.27,1-.44,1.65s-.34,1.18-.51,1.72-.28.94-.37,1.21l-2.53,7.25Z"/><path class="cls-1" d="M414,588a15.15,15.15,0,0,1-1.66,7.45,10.57,10.57,0,0,1-4.82,4.5,17.52,17.52,0,0,1-7.62,1.51h-7.34V575h8.13a15.84,15.84,0,0,1,7.08,1.47,10.53,10.53,0,0,1,4.61,4.35A14.38,14.38,0,0,1,414,588Zm-4.53.13a12.22,12.22,0,0,0-1-5.34,6.59,6.59,0,0,0-3-3.12,10.64,10.64,0,0,0-4.85-1h-3.7v19.17h3.07c3.18,0,5.56-.82,7.13-2.44S409.43,591.33,409.43,588.12Z"/><path class="cls-1" d="M432.37,578.34A7.94,7.94,0,0,0,429,579a6.78,6.78,0,0,0-2.52,2,9.18,9.18,0,0,0-1.58,3.14,14.6,14.6,0,0,0-.54,4.13,14.34,14.34,0,0,0,.87,5.26,7,7,0,0,0,2.64,3.4,7.83,7.83,0,0,0,4.46,1.18,16.17,16.17,0,0,0,3.29-.32,29,29,0,0,0,3.29-.89v3.69a16.91,16.91,0,0,1-3.26.92,22.31,22.31,0,0,1-3.79.29,12.42,12.42,0,0,1-6.73-1.68,10.15,10.15,0,0,1-4-4.73,18.3,18.3,0,0,1-1.3-7.16,17.26,17.26,0,0,1,.83-5.48,12,12,0,0,1,2.42-4.3,10.68,10.68,0,0,1,3.93-2.81,13.59,13.59,0,0,1,5.36-1,16.91,16.91,0,0,1,3.9.45,17.57,17.57,0,0,1,3.58,1.24l-1.52,3.58a24.58,24.58,0,0,0-2.88-1.11A10.14,10.14,0,0,0,432.37,578.34Z"/><path class="cls-1" d="M453.53,587.09,459.8,575h4.68l-8.78,16.15v10.26h-4.34v-10.1L442.58,575h4.71Z"/><path class="cls-1" d="M488.19,575c3.41,0,5.9.69,7.47,2.09A7.5,7.5,0,0,1,498,583a9.74,9.74,0,0,1-.53,3.24,6.89,6.89,0,0,1-1.74,2.74,8.36,8.36,0,0,1-3.19,1.88,14.91,14.91,0,0,1-4.87.69h-2.82v9.88h-4.33V575Zm-.28,3.61h-3.06v9.28h2.37a11.22,11.22,0,0,0,3.46-.47,4.24,4.24,0,0,0,2.16-1.53,4.71,4.71,0,0,0,.74-2.75,4.12,4.12,0,0,0-1.38-3.41A6.77,6.77,0,0,0,487.91,578.65Z"/><path class="cls-1" d="M512.17,575a15.93,15.93,0,0,1,5.64.84,6.49,6.49,0,0,1,3.33,2.53,7.82,7.82,0,0,1,1.09,4.3,7.16,7.16,0,0,1-.72,3.34,6.83,6.83,0,0,1-1.9,2.28,10.29,10.29,0,0,1-2.51,1.43l7.5,11.69h-4.9l-6.4-10.57h-4.22v10.57h-4.34V575Zm-.29,3.63h-2.8v8.61h3a6.82,6.82,0,0,0,4.36-1.12,4,4,0,0,0,1.36-3.3,3.59,3.59,0,0,0-1.45-3.24A8.35,8.35,0,0,0,511.88,578.67Z"/><path class="cls-1" d="M546.22,601.45l-2.58-7.34h-10.1L531,601.45h-4.58l9.83-26.52H541l9.81,26.52Zm-3.7-11L540,583.16l-.42-1.31c-.18-.57-.36-1.15-.54-1.76l-.45-1.51q-.18.74-.45,1.65c-.17.61-.34,1.18-.5,1.72l-.37,1.21-2.53,7.25Z"/><path class="cls-1" d="M587,575l-6.9,26.41H575.4L571,585.62c-.11-.38-.23-.84-.36-1.36s-.26-1.06-.39-1.62-.24-1.06-.33-1.53-.15-.82-.19-1.09a9.54,9.54,0,0,1-.16,1.09c-.08.45-.18,1-.3,1.5s-.23,1.09-.37,1.63-.25,1-.36,1.42l-4.33,15.79h-4.74L552.6,575H557l3.81,15.48c.12.49.25,1,.37,1.6s.25,1.14.36,1.72.22,1.14.32,1.69.18,1.05.23,1.49c.07-.46.14-1,.24-1.52s.2-1.14.32-1.72.23-1.15.36-1.69.25-1,.39-1.46L567.63,575h4.24l4.39,15.64q.21.68.39,1.5c.13.55.25,1.12.37,1.7s.23,1.14.33,1.68.17,1,.23,1.46c.09-.59.2-1.26.33-2s.28-1.53.45-2.31.34-1.51.51-2.17L582.66,575Z"/><path class="cls-1" d="M614.29,601.45H609L596,580.36h-.17c0,.72.1,1.47.14,2.27s.08,1.63.11,2.47.06,1.69.08,2.54v13.81h-3.94V575h5.29L610.46,596h.13c0-.61-.06-1.32-.09-2.11s-.07-1.62-.1-2.47,0-1.67-.06-2.46V575h3.95Z"/><path class="cls-1" d="M637.67,601.45h-15V575h15v3.64H627v7.18h10v3.63H627v8.29h10.63Z"/><path class="cls-1" d="M655.5,587.1h9.84v13.26a28.63,28.63,0,0,1-4.29,1.07,30,30,0,0,1-5,.38,13.4,13.4,0,0,1-6.81-1.6,10.29,10.29,0,0,1-4.23-4.63,17.1,17.1,0,0,1-1.44-7.36,15.21,15.21,0,0,1,1.6-7.18,11.19,11.19,0,0,1,4.68-4.71,15.33,15.33,0,0,1,7.45-1.67,20,20,0,0,1,7.85,1.59l-1.53,3.57a18.32,18.32,0,0,0-3-1.05,13.91,13.91,0,0,0-3.44-.43,9.35,9.35,0,0,0-4.89,1.23,8.1,8.1,0,0,0-3.15,3.45,11.63,11.63,0,0,0-1.1,5.26,13.88,13.88,0,0,0,.88,5.16,7.18,7.18,0,0,0,2.77,3.46,8.74,8.74,0,0,0,4.89,1.24,16.86,16.86,0,0,0,2.54-.16c.7-.11,1.35-.23,1.94-.36v-6.8H655.5Z"/><path class="cls-1" d="M696.62,588.21a19,19,0,0,1-.77,5.55,11.84,11.84,0,0,1-2.31,4.31,10,10,0,0,1-3.84,2.77,13.88,13.88,0,0,1-5.42,1,14.14,14.14,0,0,1-5.49-1,9.92,9.92,0,0,1-3.86-2.77,11.75,11.75,0,0,1-2.28-4.32,19.42,19.42,0,0,1-.75-5.58,17.65,17.65,0,0,1,1.34-7.13,10.19,10.19,0,0,1,4.1-4.73,13.13,13.13,0,0,1,7-1.69,12.85,12.85,0,0,1,6.85,1.68,10.39,10.39,0,0,1,4.09,4.73A17.49,17.49,0,0,1,696.62,588.21Zm-20.17,0a15,15,0,0,0,.84,5.28,7,7,0,0,0,2.55,3.43,8.8,8.8,0,0,0,8.87,0,6.83,6.83,0,0,0,2.53-3.43,15.5,15.5,0,0,0,.81-5.28,12.51,12.51,0,0,0-1.85-7.27c-1.23-1.76-3.19-2.63-5.89-2.63a7.68,7.68,0,0,0-4.45,1.2,7,7,0,0,0-2.57,3.41A14.94,14.94,0,0,0,676.45,588.21Z"/><path class="cls-1" d="M760.21,475.63H738.66l-55.27-88v88H661.84v-124h21.55l55.44,88.32V351.62h21.38Z"/></svg>