<svg id="Warstwa_1" data-name="Warstwa 1" xmlns="http://www.w3.org/2000/svg" viewBox="0 0 1000 1000"><defs><style>.cls-1{fill:#efc295;}</style></defs><path class="cls-1" d="M68.13,107.06H119V323.67h121.7v47.45H68.13Z"/><path class="cls-1" d="M315,107.06h50.9V371.12H315Z"/><path class="cls-1" d="M457.71,107.06h85.73q43.23,0,65.82,18.37t22.58,51.66q0,16.47-6.89,29.09t-21.43,19.9q28.31,5,41.9,21.62T659,293.05q0,37.13-24.88,57.6T566,371.12H457.71ZM540,211.54q39,0,39-28.71t-39-28.7H508.61v57.41Zm21,112.51q44.78,0,44.77-34.06,0-33.3-44.77-33.3H508.61v67.36Z"/><path class="cls-1" d="M733.25,107.06h86.49q49,0,76,23.34t27,65.45q0,24.1-10.33,42.48a80.68,80.68,0,0,1-29.47,29.85l49,102.94H876.76l-39-88.4a195.27,195.27,0,0,1-21.43,1.14H784.15v87.26h-50.9Zm81.9,130.12q54.72,0,54.72-41.72t-54.72-41.71h-31v83.43Z"/><rect class="cls-1" x="62.89" y="476.98" width="873.42" height="42.09"/><polygon class="cls-1" points="199.88 724.89 200.03 724.89 201.79 721.24 203.55 724.89 203.7 724.89 287.63 890.39 340.32 890.39 203.7 620.97 199.88 620.97 63.26 890.39 115.95 890.39 199.88 724.89"/><path class="cls-1" d="M165.42,812.1c0,20.68,16.33,37.45,36.48,37.45s36.48-16.77,36.48-37.45L202,810.44Z"/><polygon class="cls-1" points="796.66 727.44 796.82 727.44 798.58 723.79 800.33 727.44 800.49 727.44 884.41 892.94 937.11 892.94 800.49 623.52 796.66 623.52 660.04 892.94 712.74 892.94 796.66 727.44"/><path class="cls-1" d="M760.53,812.55c0,21.63,17.08,39.17,38.16,39.17s38.15-17.54,38.15-39.17l-38.1-1.73Z"/><path class="cls-1" d="M612.58,890.86H565.76L445.66,699.69V890.86H398.84V621.42h46.82l120.47,191.9V621.42h46.45Z"/></svg>